G04 (created by PCBNEW (2013-mar-13)-testing) date dim. 23 juin 2013 17:11:50 CEST*
%MOIN*%
G04 Gerber Fmt 3.4, Leading zero omitted, Abs format*
%FSLAX34Y34*%
G01*
G70*
G90*
G04 APERTURE LIST*
%ADD10C,0.005906*%
%ADD11C,0.015000*%
%ADD12C,0.163700*%
%ADD13R,0.079100X0.079100*%
%ADD14C,0.079100*%
%ADD15R,0.080000X0.080000*%
%ADD16C,0.080000*%
%ADD17O,0.098000X0.176000*%
%ADD18C,0.083000*%
%ADD19C,0.120000*%
%ADD20C,0.090000*%
G04 APERTURE END LIST*
G54D10*
G54D11*
X71500Y-62000D02*
X110900Y-62000D01*
X71500Y-28000D02*
X110900Y-28000D01*
X110900Y-28000D02*
X110800Y-28000D01*
X110900Y-62000D02*
X110900Y-28000D01*
X71500Y-62000D02*
X71500Y-28000D01*
G54D12*
X102738Y-58112D03*
X98065Y-58112D03*
G54D13*
X98650Y-55612D03*
G54D14*
X99150Y-54612D03*
X99650Y-55612D03*
X100150Y-54612D03*
X100650Y-55612D03*
X101150Y-54612D03*
X101650Y-55612D03*
X102150Y-54612D03*
G54D12*
X109338Y-58112D03*
X104665Y-58112D03*
G54D13*
X105250Y-55612D03*
G54D14*
X105750Y-54612D03*
X106250Y-55612D03*
X106750Y-54612D03*
X107250Y-55612D03*
X107750Y-54612D03*
X108250Y-55612D03*
X108750Y-54612D03*
G54D15*
X77100Y-49200D03*
G54D16*
X77100Y-48200D03*
X78100Y-49200D03*
X78100Y-48200D03*
X79100Y-49200D03*
X79100Y-48200D03*
X80100Y-49200D03*
X80100Y-48200D03*
X81100Y-49200D03*
X81100Y-48200D03*
X82100Y-49200D03*
X82100Y-48200D03*
X83100Y-49200D03*
X83100Y-48200D03*
X84100Y-49200D03*
X84100Y-48200D03*
X85100Y-49200D03*
X85100Y-48200D03*
X86100Y-49200D03*
X86100Y-48200D03*
G54D15*
X102575Y-53275D03*
G54D16*
X102575Y-52275D03*
G54D17*
X82000Y-59645D03*
X83515Y-59645D03*
X85031Y-59645D03*
X86547Y-59645D03*
X88062Y-59645D03*
X73500Y-59645D03*
X75015Y-59645D03*
X76531Y-59645D03*
X78047Y-59645D03*
X79562Y-59645D03*
G54D15*
X107400Y-51112D03*
G54D16*
X107400Y-52112D03*
X106400Y-51112D03*
X106400Y-52112D03*
X105400Y-51112D03*
X105400Y-52112D03*
G54D15*
X101375Y-46175D03*
G54D16*
X101375Y-45175D03*
G54D15*
X100375Y-46175D03*
G54D16*
X100375Y-45175D03*
G54D15*
X98375Y-46175D03*
G54D16*
X98375Y-45175D03*
G54D15*
X105725Y-45000D03*
G54D16*
X105725Y-46000D03*
G54D15*
X99375Y-46175D03*
G54D16*
X99375Y-45175D03*
G54D15*
X100725Y-48525D03*
G54D16*
X100725Y-49525D03*
X99725Y-48525D03*
X99725Y-49525D03*
X98725Y-48525D03*
X98725Y-49525D03*
G54D17*
X94400Y-59645D03*
X95915Y-59645D03*
G54D18*
X72450Y-41350D03*
X75442Y-41350D03*
G54D19*
X75442Y-36350D03*
X72450Y-35350D03*
G54D18*
X77350Y-41350D03*
X80342Y-41350D03*
G54D19*
X80342Y-36350D03*
X77350Y-35350D03*
G54D18*
X82250Y-41350D03*
X85242Y-41350D03*
G54D19*
X85242Y-36350D03*
X82250Y-35350D03*
G54D18*
X87150Y-41350D03*
X90142Y-41350D03*
G54D19*
X90142Y-36350D03*
X87150Y-35350D03*
G54D17*
X74990Y-31889D03*
X73020Y-31889D03*
X79790Y-31889D03*
X77820Y-31889D03*
X84590Y-31889D03*
X82620Y-31889D03*
X89390Y-31889D03*
X87420Y-31889D03*
X94990Y-31889D03*
X93020Y-31889D03*
X99790Y-31889D03*
X97820Y-31889D03*
X104590Y-31889D03*
X102620Y-31889D03*
X109390Y-31889D03*
X107420Y-31889D03*
G54D18*
X106800Y-41350D03*
X109792Y-41350D03*
G54D19*
X109792Y-36350D03*
X106800Y-35350D03*
G54D18*
X101950Y-41350D03*
X104942Y-41350D03*
G54D19*
X104942Y-36350D03*
X101950Y-35350D03*
G54D18*
X97100Y-41350D03*
X100092Y-41350D03*
G54D19*
X100092Y-36350D03*
X97100Y-35350D03*
G54D18*
X92250Y-41350D03*
X95242Y-41350D03*
G54D19*
X95242Y-36350D03*
X92250Y-35350D03*
G54D20*
X98700Y-51575D03*
X99700Y-51575D03*
X100700Y-51575D03*
M02*
