M48
;DRILL file {Pcbnew (2011-nov-30)-testing} date ven. 21 sept. 2012 14:09:11 CEST
;FORMAT={-:-/ absolute / inch / decimal}
FMAT,2
INCH,TZ
T1C0.025
T2C0.032
T3C0.040
T4C0.052
T5C0.059
T6C0.120
%
G90
G05
M72
T1
X5.23Y5.34
X5.3Y5.
X5.34Y4.555
X5.39Y4.72
X5.405Y5.11
X5.42Y5.24
X5.57Y5.34
X5.595Y5.
X5.62Y4.47
X5.655Y3.805
X5.7Y5.33
X5.88Y5.11
X5.89Y5.24
X5.9Y4.22
X6.06Y5.
X6.06Y5.33
X6.18Y5.33
X6.25Y4.82
X6.3Y4.55
X6.33Y4.72
X6.335Y5.11
X6.345Y5.24
X6.52Y5.
X6.54Y5.33
X6.58Y4.47
X6.63Y3.805
X6.635Y4.825
X6.66Y5.33
X6.8Y5.105
X6.81Y5.235
X6.88Y4.22
X7.02Y5.33
X7.15Y4.915
X7.295Y4.555
X7.31Y5.005
X7.34Y4.72
X7.57Y4.47
X7.61Y5.42
X7.615Y3.79
X7.705Y5.035
X7.705Y5.305
X7.87Y4.22
X7.9Y5.01
X7.905Y5.55
X8.075Y4.55
X8.11Y4.96
X8.26Y5.25
X8.29Y4.72
X8.43Y4.55
X8.59Y3.8
X8.85Y4.22
T2
X5.23Y3.9531
X5.23Y4.3469
X5.3624Y4.14
X5.6576Y4.135
X6.22Y3.9531
X6.22Y4.3469
X6.3524Y4.14
X6.6476Y4.135
X7.2Y3.9531
X7.2Y4.3469
X7.3324Y4.14
X7.6276Y4.135
X8.17Y3.9531
X8.17Y4.3469
X8.3024Y4.14
X8.5976Y4.135
T3
X5.33Y3.57
X5.43Y3.73
X5.53Y3.57
X6.3Y3.57
X6.4Y3.73
X6.5Y3.57
X7.15Y5.37
X7.15Y5.47
X7.25Y5.37
X7.25Y5.47
X7.29Y3.57
X7.35Y5.37
X7.35Y5.47
X7.375Y5.85
X7.375Y5.95
X7.39Y3.73
X7.475Y5.85
X7.475Y5.95
X7.49Y3.57
X7.575Y5.85
X7.575Y5.95
X7.965Y5.85
X7.965Y5.95
X8.06Y5.2
X8.06Y5.3
X8.06Y5.4
X8.06Y5.5
X8.065Y5.85
X8.065Y5.95
X8.16Y5.2
X8.16Y5.3
X8.16Y5.4
X8.16Y5.5
X8.165Y5.85
X8.165Y5.95
X8.26Y3.57
X8.36Y3.73
X8.46Y3.57
X8.765Y4.74
X8.865Y4.74
T4
X5.301Y5.83
X5.498Y5.83
X5.502Y3.1
X5.699Y3.1
X5.781Y5.83
X5.978Y5.83
X6.261Y5.83
X6.458Y5.83
X6.502Y3.1
X6.699Y3.1
X6.741Y5.83
X6.938Y5.83
X7.502Y3.1
X7.699Y3.1
X8.402Y3.1
X8.599Y3.1
X8.601Y5.82
X8.798Y5.82
T5
X5.91Y3.6169
X5.91Y4.4831
X6.89Y3.6169
X6.89Y4.4831
X7.87Y3.6169
X7.87Y4.4831
X8.85Y3.6169
X8.85Y4.4831
T6
X6.13Y2.99
X8.085Y2.985
X8.39Y5.525
T0
M30
