G04 (created by PCBNEW (2011-nov-30)-testing) date jeu. 20 sept. 2012 21:30:35 CEST*
%MOIN*%
G04 Gerber Fmt 3.4, Leading zero omitted, Abs format*
%FSLAX34Y34*%
G01*
G70*
G90*
G04 APERTURE LIST*
%ADD10C,0.006*%
%ADD11C,0.01*%
%ADD12R,0.08X0.05*%
%ADD13R,0.09X0.11*%
%ADD14R,0.09X0.09*%
%ADD15C,0.09*%
%ADD16O,0.108X0.186*%
%ADD17R,0.0929X0.1009*%
%ADD18C,0.085*%
%ADD19R,0.12X0.092*%
%ADD20R,0.1182X0.1182*%
%ADD21C,0.1182*%
%ADD22O,0.1284X0.1875*%
%ADD23C,0.1*%
G04 APERTURE END LIST*
G54D10*
G54D11*
X51100Y-61600D02*
X51100Y-61400D01*
X90550Y-61600D02*
X51100Y-61600D01*
X90550Y-27600D02*
X90550Y-61600D01*
X51100Y-27600D02*
X90550Y-27600D01*
X51100Y-61400D02*
X51100Y-27600D01*
G54D12*
X75200Y-50550D03*
X75200Y-51050D03*
X75200Y-51550D03*
X75200Y-52050D03*
X75200Y-52550D03*
X75200Y-53050D03*
X75200Y-53550D03*
X75200Y-54050D03*
X75200Y-54550D03*
X75200Y-55050D03*
X79000Y-55050D03*
X79000Y-54550D03*
X79000Y-54050D03*
X79000Y-53550D03*
X79000Y-53050D03*
X79000Y-52550D03*
X79000Y-52050D03*
X79000Y-51550D03*
X79000Y-51050D03*
X79000Y-50550D03*
G54D13*
X53650Y-54250D03*
X52350Y-54250D03*
X67050Y-47200D03*
X68350Y-47200D03*
X58250Y-54300D03*
X56950Y-54300D03*
X77050Y-47200D03*
X78350Y-47200D03*
X67750Y-54300D03*
X66450Y-54300D03*
X57550Y-47200D03*
X58850Y-47200D03*
X63050Y-54300D03*
X61750Y-54300D03*
X80850Y-47200D03*
X79550Y-47200D03*
X80450Y-49750D03*
X81750Y-49750D03*
G54D14*
X73500Y-53700D03*
G54D15*
X73500Y-54700D03*
X72500Y-53700D03*
X72500Y-54700D03*
X71500Y-53700D03*
X71500Y-54700D03*
G54D16*
X66990Y-31000D03*
X65020Y-31000D03*
X76990Y-31000D03*
X75020Y-31000D03*
X56990Y-31000D03*
X55020Y-31000D03*
G54D17*
X54641Y-47200D03*
X55759Y-47200D03*
X81659Y-50750D03*
X80541Y-50750D03*
X64141Y-47200D03*
X65259Y-47200D03*
X55559Y-54250D03*
X54441Y-54250D03*
X60059Y-54300D03*
X58941Y-54300D03*
X83741Y-47200D03*
X84859Y-47200D03*
X64959Y-54300D03*
X63841Y-54300D03*
X74141Y-47200D03*
X75259Y-47200D03*
X69659Y-54300D03*
X68541Y-54300D03*
G54D16*
X85990Y-31000D03*
X84020Y-31000D03*
G54D18*
X52300Y-43469D03*
X52300Y-39531D03*
X62200Y-43469D03*
X62200Y-39531D03*
X72000Y-43469D03*
X72000Y-39531D03*
X81700Y-43469D03*
X81700Y-39531D03*
G54D19*
X69000Y-52000D03*
X69000Y-51000D03*
X69000Y-50000D03*
X66000Y-50000D03*
X66000Y-51000D03*
X66000Y-52000D03*
X59800Y-52000D03*
X59800Y-51000D03*
X59800Y-50000D03*
X56800Y-50000D03*
X56800Y-51000D03*
X56800Y-52000D03*
X64400Y-52000D03*
X64400Y-51000D03*
X64400Y-50000D03*
X61400Y-50000D03*
X61400Y-51000D03*
X61400Y-52000D03*
X55100Y-52000D03*
X55100Y-51000D03*
X55100Y-50000D03*
X52100Y-50000D03*
X52100Y-51000D03*
X52100Y-52000D03*
G54D20*
X73324Y-41400D03*
G54D21*
X76276Y-41350D03*
G54D20*
X63524Y-41400D03*
G54D21*
X66476Y-41350D03*
G54D20*
X53624Y-41400D03*
G54D21*
X56576Y-41350D03*
G54D20*
X83024Y-41400D03*
G54D21*
X85976Y-41350D03*
G54D14*
X81400Y-58250D03*
G54D15*
X81400Y-59250D03*
X80400Y-58250D03*
X80400Y-59250D03*
X79400Y-58250D03*
X79400Y-59250D03*
G54D14*
X75500Y-58250D03*
G54D15*
X75500Y-59250D03*
X74500Y-58250D03*
X74500Y-59250D03*
X73500Y-58250D03*
X73500Y-59250D03*
G54D13*
X75400Y-49600D03*
X74100Y-49600D03*
G54D17*
X77559Y-49600D03*
X76441Y-49600D03*
G54D22*
X59100Y-36169D03*
X59100Y-44831D03*
X68900Y-36169D03*
X68900Y-44831D03*
X78700Y-36169D03*
X78700Y-44831D03*
X88500Y-36169D03*
X88500Y-44831D03*
G54D23*
X55300Y-35700D03*
X54300Y-37300D03*
X53300Y-35700D03*
X65000Y-35700D03*
X64000Y-37300D03*
X63000Y-35700D03*
X74900Y-35700D03*
X73900Y-37300D03*
X72900Y-35700D03*
X84600Y-35700D03*
X83600Y-37300D03*
X82600Y-35700D03*
G54D16*
X53010Y-58300D03*
X54980Y-58300D03*
X57810Y-58300D03*
X59780Y-58300D03*
X62610Y-58300D03*
X64580Y-58300D03*
X67410Y-58300D03*
X69380Y-58300D03*
X86010Y-58200D03*
X87980Y-58200D03*
G54D14*
X81600Y-55000D03*
G54D15*
X80600Y-55000D03*
G54D14*
X81600Y-54000D03*
G54D15*
X80600Y-54000D03*
G54D14*
X81600Y-52000D03*
G54D15*
X80600Y-52000D03*
G54D14*
X81600Y-53000D03*
G54D15*
X80600Y-53000D03*
G54D14*
X87650Y-47400D03*
G54D15*
X88650Y-47400D03*
M02*
