G04 (created by PCBNEW (2013-mar-13)-testing) date mer. 26 juin 2013 21:31:07 CEST*
%MOIN*%
G04 Gerber Fmt 3.4, Leading zero omitted, Abs format*
%FSLAX34Y34*%
G01*
G70*
G90*
G04 APERTURE LIST*
%ADD10C,0.005906*%
%ADD11C,0.015000*%
%ADD12R,0.047600X0.079100*%
%ADD13R,0.079100X0.122400*%
%ADD14R,0.059400X0.122400*%
%ADD15R,0.067200X0.067200*%
%ADD16R,0.098700X0.236500*%
%ADD17R,0.036000X0.080000*%
%ADD18R,0.080000X0.036000*%
%ADD19R,0.100000X0.080000*%
%ADD20R,0.080000X0.100000*%
%ADD21R,0.080000X0.080000*%
%ADD22C,0.080000*%
%ADD23R,0.082900X0.090900*%
%ADD24R,0.118400X0.171600*%
%ADD25R,0.164000X0.100000*%
%ADD26R,0.060000X0.100000*%
%ADD27R,0.043600X0.075100*%
%ADD28R,0.070000X0.040000*%
%ADD29R,0.040000X0.065000*%
%ADD30R,0.090900X0.063300*%
%ADD31O,0.098000X0.176000*%
%ADD32C,0.161700*%
%ADD33R,0.090000X0.090000*%
%ADD34C,0.100000*%
%ADD35C,0.120000*%
%ADD36R,0.098700X0.110600*%
%ADD37R,0.075100X0.043600*%
%ADD38R,0.058000X0.070000*%
%ADD39R,0.046000X0.100000*%
%ADD40C,0.072000*%
%ADD41C,0.163700*%
%ADD42R,0.079100X0.079100*%
%ADD43C,0.079100*%
G04 APERTURE END LIST*
G54D10*
G54D11*
X52362Y-44488D02*
X12992Y-44488D01*
X52362Y-10629D02*
X52362Y-44488D01*
X52362Y-10629D02*
X12992Y-10629D01*
X12992Y-44488D02*
X12992Y-10629D01*
G54D12*
X25990Y-11430D03*
X26423Y-11430D03*
X26856Y-11430D03*
X27289Y-11430D03*
X27722Y-11430D03*
X28156Y-11430D03*
X28589Y-11430D03*
X29022Y-11430D03*
G54D13*
X24612Y-11509D03*
G54D14*
X29848Y-11509D03*
G54D15*
X25596Y-16588D03*
G54D16*
X31367Y-27238D03*
X31367Y-30938D03*
G54D17*
X35225Y-26051D03*
X34910Y-26051D03*
X34595Y-26051D03*
X34280Y-26051D03*
X33965Y-26051D03*
X33650Y-26051D03*
X35540Y-26051D03*
X35855Y-26051D03*
X36170Y-26051D03*
X36485Y-26051D03*
X36800Y-26051D03*
X35225Y-30551D03*
X34910Y-30551D03*
X34595Y-30551D03*
X34280Y-30551D03*
X33965Y-30551D03*
X33650Y-30551D03*
X35540Y-30551D03*
X35855Y-30551D03*
X36170Y-30551D03*
X36485Y-30551D03*
X36800Y-30551D03*
G54D18*
X32975Y-28301D03*
X37475Y-28301D03*
X32975Y-28616D03*
X37475Y-28616D03*
X37475Y-28931D03*
X32975Y-28931D03*
X32975Y-29246D03*
X37475Y-29246D03*
X37475Y-29561D03*
X32975Y-29561D03*
X32975Y-29876D03*
X37475Y-29876D03*
X37475Y-27986D03*
X32975Y-27986D03*
X32975Y-27671D03*
X37475Y-27671D03*
X37475Y-27356D03*
X32975Y-27356D03*
X32975Y-27041D03*
X37475Y-27041D03*
X37475Y-26726D03*
X32975Y-26726D03*
G54D19*
X48650Y-24650D03*
X48650Y-25950D03*
X48650Y-28350D03*
X48650Y-27050D03*
X34450Y-23300D03*
X34450Y-24600D03*
G54D20*
X35850Y-24450D03*
X37150Y-24450D03*
X42550Y-38700D03*
X43850Y-38700D03*
G54D19*
X35300Y-32900D03*
X35300Y-31600D03*
G54D20*
X31350Y-32650D03*
X30050Y-32650D03*
X31350Y-25550D03*
X30050Y-25550D03*
X38350Y-28600D03*
X39650Y-28600D03*
G54D19*
X29650Y-28300D03*
X29650Y-27000D03*
G54D21*
X44000Y-31000D03*
G54D22*
X43000Y-31000D03*
X42000Y-31000D03*
X41000Y-31000D03*
X40000Y-31000D03*
G54D21*
X50000Y-24000D03*
G54D22*
X50000Y-25000D03*
X50000Y-26000D03*
X50000Y-27000D03*
X50000Y-28000D03*
G54D21*
X34800Y-40400D03*
G54D22*
X35800Y-40400D03*
G54D21*
X37975Y-42550D03*
G54D22*
X38975Y-42550D03*
X39975Y-42550D03*
X40975Y-42550D03*
X41975Y-42550D03*
X42975Y-42550D03*
G54D23*
X43759Y-40300D03*
X42641Y-40300D03*
G54D21*
X47400Y-34700D03*
G54D22*
X47400Y-33700D03*
X48400Y-34700D03*
X48400Y-33700D03*
X49400Y-34700D03*
X49400Y-33700D03*
G54D24*
X24054Y-37628D03*
X25236Y-37628D03*
X25236Y-33710D03*
X24054Y-33710D03*
G54D25*
X16506Y-30768D03*
G54D26*
X16506Y-33368D03*
X17406Y-33368D03*
X15606Y-33368D03*
G54D27*
X21694Y-42073D03*
X21694Y-39973D03*
X21194Y-42073D03*
X20694Y-42073D03*
X20194Y-42073D03*
X21194Y-39973D03*
X20694Y-39973D03*
X20194Y-39973D03*
G54D28*
X23689Y-27685D03*
X23689Y-27185D03*
X23689Y-26685D03*
X23689Y-26185D03*
X23689Y-25685D03*
X23689Y-25185D03*
X23689Y-24685D03*
X23689Y-24185D03*
X23689Y-23685D03*
X23689Y-23185D03*
X23689Y-22685D03*
X23689Y-22185D03*
X23689Y-21685D03*
X23689Y-21185D03*
X20089Y-21185D03*
X20089Y-21685D03*
X20089Y-22185D03*
X20089Y-22685D03*
X20089Y-23185D03*
X20089Y-23685D03*
X20089Y-24185D03*
X20089Y-24685D03*
X20089Y-25185D03*
X20089Y-25685D03*
X20089Y-26185D03*
X20089Y-26685D03*
X20089Y-27185D03*
X20089Y-27685D03*
G54D29*
X28519Y-23934D03*
X29019Y-23934D03*
X29519Y-23934D03*
X30019Y-23934D03*
X30519Y-23934D03*
X31019Y-23934D03*
X31519Y-23934D03*
X31519Y-21834D03*
X31019Y-21834D03*
X30519Y-21834D03*
X30019Y-21834D03*
X29519Y-21834D03*
X29019Y-21834D03*
X28519Y-21834D03*
G54D20*
X20925Y-38287D03*
X19625Y-38287D03*
G54D19*
X18503Y-38346D03*
X18503Y-37046D03*
X18500Y-33325D03*
X18500Y-34625D03*
G54D20*
X23857Y-41732D03*
X25157Y-41732D03*
X19625Y-37204D03*
X20925Y-37204D03*
X19646Y-36023D03*
X18346Y-36023D03*
X21200Y-43208D03*
X22500Y-43208D03*
X23857Y-42913D03*
X25157Y-42913D03*
X28250Y-33700D03*
X29550Y-33700D03*
G54D19*
X21350Y-32550D03*
X21350Y-31250D03*
X27950Y-32700D03*
X27950Y-31400D03*
X24645Y-32303D03*
X24645Y-31003D03*
X17125Y-39921D03*
X17125Y-38621D03*
G54D20*
X17952Y-42814D03*
X19252Y-42814D03*
G54D19*
X24606Y-22401D03*
X24606Y-21101D03*
X16850Y-23864D03*
X16850Y-25164D03*
X16850Y-27526D03*
X16850Y-26226D03*
G54D20*
X19250Y-22050D03*
X17950Y-22050D03*
X19250Y-21050D03*
X17950Y-21050D03*
X20050Y-29700D03*
X21350Y-29700D03*
G54D19*
X16830Y-22697D03*
X16830Y-21397D03*
G54D20*
X21350Y-28650D03*
X20050Y-28650D03*
G54D19*
X23523Y-20236D03*
X23523Y-18936D03*
X25688Y-22401D03*
X25688Y-21101D03*
X19550Y-33325D03*
X19550Y-34625D03*
X24606Y-20236D03*
X24606Y-18936D03*
X15650Y-19200D03*
X15650Y-20500D03*
X16800Y-20500D03*
X16800Y-19200D03*
G54D20*
X17950Y-19750D03*
X19250Y-19750D03*
X17950Y-18750D03*
X19250Y-18750D03*
G54D19*
X14015Y-25322D03*
X14015Y-24022D03*
X15196Y-25322D03*
X15196Y-24022D03*
X15944Y-39921D03*
X15944Y-38621D03*
X18543Y-31004D03*
X18543Y-29704D03*
G54D20*
X17952Y-41535D03*
X19252Y-41535D03*
G54D19*
X33450Y-23300D03*
X33450Y-24600D03*
G54D20*
X29250Y-37225D03*
X27950Y-37225D03*
G54D19*
X27950Y-34750D03*
X27950Y-36050D03*
X14665Y-39921D03*
X14665Y-38621D03*
X21300Y-34750D03*
X21300Y-36050D03*
X22775Y-41550D03*
X22775Y-40250D03*
X27500Y-19150D03*
X27500Y-17850D03*
G54D30*
X36520Y-43228D03*
X34080Y-43228D03*
X34080Y-41772D03*
X36520Y-41772D03*
G54D16*
X18503Y-23845D03*
X18503Y-27545D03*
G54D21*
X33150Y-21070D03*
G54D22*
X33150Y-20070D03*
X34150Y-21070D03*
X34150Y-20070D03*
X35150Y-21070D03*
X35150Y-20070D03*
G54D21*
X14755Y-37204D03*
G54D22*
X15755Y-37204D03*
G54D31*
X14998Y-42125D03*
X16513Y-42125D03*
G54D32*
X15256Y-13898D03*
X19744Y-13879D03*
G54D33*
X19232Y-16379D03*
G54D34*
X18760Y-17383D03*
X18248Y-16379D03*
X17736Y-17383D03*
X17264Y-16379D03*
X16752Y-17383D03*
X16240Y-16379D03*
X15768Y-17383D03*
X20118Y-12304D03*
X19114Y-12304D03*
X15886Y-12304D03*
X14882Y-12304D03*
G54D35*
X20512Y-15060D03*
X14449Y-15060D03*
G54D36*
X25570Y-39921D03*
X23878Y-39921D03*
G54D23*
X38759Y-40300D03*
X37641Y-40300D03*
G54D20*
X37550Y-38700D03*
X38850Y-38700D03*
G54D37*
X39125Y-17113D03*
X37025Y-17113D03*
X39125Y-17613D03*
X39125Y-18113D03*
X39125Y-18613D03*
X37025Y-17613D03*
X37025Y-18113D03*
X37025Y-18613D03*
G54D20*
X38650Y-16125D03*
X37350Y-16125D03*
G54D38*
X40025Y-18350D03*
X40525Y-18350D03*
X40025Y-17350D03*
X40525Y-17350D03*
G54D20*
X41550Y-18500D03*
X42850Y-18500D03*
X41550Y-17400D03*
X42850Y-17400D03*
G54D29*
X28618Y-20391D03*
X29118Y-20391D03*
X29618Y-20391D03*
X30118Y-20391D03*
X30618Y-20391D03*
X31118Y-20391D03*
X31618Y-20391D03*
X31618Y-18291D03*
X31118Y-18291D03*
X30618Y-18291D03*
X30118Y-18291D03*
X29618Y-18291D03*
X29118Y-18291D03*
X28618Y-18291D03*
G54D20*
X23650Y-28650D03*
X22350Y-28650D03*
G54D19*
X14448Y-30964D03*
X14448Y-29664D03*
G54D39*
X46020Y-27160D03*
X46520Y-27160D03*
X47020Y-27160D03*
X47520Y-27160D03*
X47520Y-24740D03*
X47020Y-24740D03*
X46520Y-24740D03*
X46020Y-24740D03*
G54D20*
X47160Y-17160D03*
X48460Y-17160D03*
G54D31*
X40075Y-12925D03*
X38559Y-12925D03*
X37043Y-12925D03*
G54D21*
X34100Y-12775D03*
G54D22*
X34100Y-13775D03*
G54D31*
X50050Y-12925D03*
X48534Y-12925D03*
X47018Y-12925D03*
G54D21*
X33150Y-35700D03*
G54D22*
X33150Y-34700D03*
X34150Y-35700D03*
X34150Y-34700D03*
X35150Y-35700D03*
X35150Y-34700D03*
X36150Y-35700D03*
X36150Y-34700D03*
X37150Y-35700D03*
X37150Y-34700D03*
X38150Y-35700D03*
X38150Y-34700D03*
X39150Y-35700D03*
X39150Y-34700D03*
X40150Y-35700D03*
X40150Y-34700D03*
X41150Y-35700D03*
X41150Y-34700D03*
X42150Y-35700D03*
X42150Y-34700D03*
G54D40*
X49075Y-18525D03*
X48075Y-18525D03*
X47075Y-18525D03*
G54D41*
X50838Y-40700D03*
X46165Y-40700D03*
G54D42*
X46750Y-38200D03*
G54D43*
X47250Y-37200D03*
X47750Y-38200D03*
X48250Y-37200D03*
X48750Y-38200D03*
X49250Y-37200D03*
X49750Y-38200D03*
X50250Y-37200D03*
G54D23*
X41259Y-40300D03*
X40141Y-40300D03*
G54D20*
X40050Y-38700D03*
X41350Y-38700D03*
G54D21*
X40000Y-20000D03*
G54D22*
X41000Y-20000D03*
X42000Y-20000D03*
X43000Y-20000D03*
X44000Y-20000D03*
G54D31*
X44250Y-12900D03*
X42734Y-12900D03*
M02*
