G04 (created by PCBNEW (2013-mar-13)-testing) date mer. 26 juin 2013 21:31:07 CEST*
%MOIN*%
G04 Gerber Fmt 3.4, Leading zero omitted, Abs format*
%FSLAX34Y34*%
G01*
G70*
G90*
G04 APERTURE LIST*
%ADD10C,0.005906*%
%ADD11C,0.015000*%
%ADD12C,0.005000*%
%ADD13C,0.003500*%
G04 APERTURE END LIST*
G54D10*
G54D11*
X52362Y-44488D02*
X12992Y-44488D01*
X52362Y-10629D02*
X52362Y-44488D01*
X52362Y-10629D02*
X12992Y-10629D01*
X12992Y-44488D02*
X12992Y-10629D01*
G54D12*
X48260Y-32910D02*
X47260Y-32910D01*
X47260Y-32210D02*
X48260Y-32210D01*
X47260Y-32210D02*
X47260Y-32910D01*
X48260Y-32910D02*
X48260Y-32210D01*
G54D10*
X14637Y-41735D02*
X14637Y-42515D01*
X15358Y-41735D02*
X15358Y-42515D01*
X14637Y-42515D02*
G75*
G03X15358Y-42515I360J0D01*
G74*
G01*
X15358Y-41735D02*
G75*
G03X14637Y-41735I-360J0D01*
G74*
G01*
X16153Y-41735D02*
X16153Y-42515D01*
X16874Y-41735D02*
X16874Y-42515D01*
X16153Y-42515D02*
G75*
G03X16874Y-42515I360J0D01*
G74*
G01*
X16874Y-41735D02*
G75*
G03X16153Y-41735I-360J0D01*
G74*
G01*
X15934Y-13898D02*
G75*
G03X15934Y-13898I-678J0D01*
G74*
G01*
X20422Y-13879D02*
G75*
G03X20422Y-13879I-678J0D01*
G74*
G01*
X20488Y-12304D02*
G75*
G03X20488Y-12304I-370J0D01*
G74*
G01*
X19484Y-12304D02*
G75*
G03X19484Y-12304I-370J0D01*
G74*
G01*
X16256Y-12304D02*
G75*
G03X16256Y-12304I-370J0D01*
G74*
G01*
X15252Y-12304D02*
G75*
G03X15252Y-12304I-370J0D01*
G74*
G01*
X20982Y-15060D02*
G75*
G03X20982Y-15060I-470J0D01*
G74*
G01*
X14919Y-15060D02*
G75*
G03X14919Y-15060I-470J0D01*
G74*
G01*
X40435Y-13315D02*
X40435Y-12535D01*
X39714Y-13315D02*
X39714Y-12535D01*
X40435Y-12535D02*
G75*
G03X39714Y-12535I-360J0D01*
G74*
G01*
X39714Y-13315D02*
G75*
G03X40435Y-13315I360J0D01*
G74*
G01*
X38919Y-13315D02*
X38919Y-12535D01*
X38198Y-13315D02*
X38198Y-12535D01*
X38919Y-12535D02*
G75*
G03X38198Y-12535I-360J0D01*
G74*
G01*
X38198Y-13315D02*
G75*
G03X38919Y-13315I360J0D01*
G74*
G01*
X37403Y-13315D02*
X37403Y-12535D01*
X36683Y-13315D02*
X36683Y-12535D01*
X37403Y-12535D02*
G75*
G03X36683Y-12535I-360J0D01*
G74*
G01*
X36683Y-13315D02*
G75*
G03X37403Y-13315I360J0D01*
G74*
G01*
X50410Y-13315D02*
X50410Y-12535D01*
X49689Y-13315D02*
X49689Y-12535D01*
X50410Y-12535D02*
G75*
G03X49689Y-12535I-360J0D01*
G74*
G01*
X49689Y-13315D02*
G75*
G03X50410Y-13315I360J0D01*
G74*
G01*
X48894Y-13315D02*
X48894Y-12535D01*
X48173Y-13315D02*
X48173Y-12535D01*
X48894Y-12535D02*
G75*
G03X48173Y-12535I-360J0D01*
G74*
G01*
X48173Y-13315D02*
G75*
G03X48894Y-13315I360J0D01*
G74*
G01*
X47378Y-13315D02*
X47378Y-12535D01*
X46658Y-13315D02*
X46658Y-12535D01*
X47378Y-12535D02*
G75*
G03X46658Y-12535I-360J0D01*
G74*
G01*
X46658Y-13315D02*
G75*
G03X47378Y-13315I360J0D01*
G74*
G01*
X44610Y-13290D02*
X44610Y-12510D01*
X43889Y-13290D02*
X43889Y-12510D01*
X44610Y-12510D02*
G75*
G03X43889Y-12510I-360J0D01*
G74*
G01*
X43889Y-13290D02*
G75*
G03X44610Y-13290I360J0D01*
G74*
G01*
X43094Y-13290D02*
X43094Y-12510D01*
X42373Y-13290D02*
X42373Y-12510D01*
X43094Y-12510D02*
G75*
G03X42373Y-12510I-360J0D01*
G74*
G01*
X42373Y-13290D02*
G75*
G03X43094Y-13290I360J0D01*
G74*
G01*
G54D12*
X47967Y-33110D02*
X47995Y-33090D01*
X48038Y-33090D01*
X48081Y-33110D01*
X48110Y-33148D01*
X48124Y-33186D01*
X48138Y-33262D01*
X48138Y-33319D01*
X48124Y-33395D01*
X48110Y-33433D01*
X48081Y-33471D01*
X48038Y-33490D01*
X48010Y-33490D01*
X47967Y-33471D01*
X47952Y-33452D01*
X47952Y-33319D01*
X48010Y-33319D01*
X47838Y-33471D02*
X47795Y-33490D01*
X47724Y-33490D01*
X47695Y-33471D01*
X47681Y-33452D01*
X47667Y-33414D01*
X47667Y-33376D01*
X47681Y-33338D01*
X47695Y-33319D01*
X47724Y-33300D01*
X47781Y-33281D01*
X47810Y-33262D01*
X47824Y-33243D01*
X47838Y-33205D01*
X47838Y-33167D01*
X47824Y-33129D01*
X47810Y-33110D01*
X47781Y-33090D01*
X47710Y-33090D01*
X47667Y-33110D01*
X47381Y-33490D02*
X47552Y-33490D01*
X47467Y-33490D02*
X47467Y-33090D01*
X47495Y-33148D01*
X47524Y-33186D01*
X47552Y-33205D01*
G54D13*
X48696Y-27863D02*
X48196Y-27863D01*
X48648Y-27339D02*
X48672Y-27363D01*
X48696Y-27434D01*
X48696Y-27482D01*
X48672Y-27553D01*
X48624Y-27601D01*
X48577Y-27625D01*
X48481Y-27648D01*
X48410Y-27648D01*
X48315Y-27625D01*
X48267Y-27601D01*
X48220Y-27553D01*
X48196Y-27482D01*
X48196Y-27434D01*
X48220Y-27363D01*
X48243Y-27339D01*
X48243Y-27148D02*
X48220Y-27125D01*
X48196Y-27077D01*
X48196Y-26958D01*
X48220Y-26910D01*
X48243Y-26886D01*
X48291Y-26863D01*
X48339Y-26863D01*
X48410Y-26886D01*
X48696Y-27172D01*
X48696Y-26863D01*
X49830Y-18726D02*
X49830Y-18226D01*
X50021Y-18226D01*
X50069Y-18250D01*
X50092Y-18273D01*
X50116Y-18321D01*
X50116Y-18392D01*
X50092Y-18440D01*
X50069Y-18464D01*
X50021Y-18488D01*
X49830Y-18488D01*
X50307Y-18273D02*
X50330Y-18250D01*
X50378Y-18226D01*
X50497Y-18226D01*
X50545Y-18250D01*
X50569Y-18273D01*
X50592Y-18321D01*
X50592Y-18369D01*
X50569Y-18440D01*
X50283Y-18726D01*
X50592Y-18726D01*
M02*
