G04 (created by PCBNEW (2013-mar-13)-testing) date mer. 26 juin 2013 21:31:07 CEST*
%MOIN*%
G04 Gerber Fmt 3.4, Leading zero omitted, Abs format*
%FSLAX34Y34*%
G01*
G70*
G90*
G04 APERTURE LIST*
%ADD10C,0.005906*%
%ADD11C,0.015000*%
%ADD12R,0.080000X0.080000*%
%ADD13C,0.080000*%
%ADD14R,0.058000X0.070000*%
%ADD15O,0.098000X0.176000*%
%ADD16C,0.161700*%
%ADD17R,0.090000X0.090000*%
%ADD18C,0.100000*%
%ADD19C,0.120000*%
%ADD20C,0.163700*%
%ADD21R,0.079100X0.079100*%
%ADD22C,0.079100*%
G04 APERTURE END LIST*
G54D10*
G54D11*
X52362Y-44488D02*
X12992Y-44488D01*
X52362Y-10629D02*
X52362Y-44488D01*
X52362Y-10629D02*
X12992Y-10629D01*
X12992Y-44488D02*
X12992Y-10629D01*
G54D12*
X44000Y-31000D03*
G54D13*
X43000Y-31000D03*
X42000Y-31000D03*
X41000Y-31000D03*
X40000Y-31000D03*
G54D12*
X50000Y-24000D03*
G54D13*
X50000Y-25000D03*
X50000Y-26000D03*
X50000Y-27000D03*
X50000Y-28000D03*
G54D12*
X34800Y-40400D03*
G54D13*
X35800Y-40400D03*
G54D12*
X37975Y-42550D03*
G54D13*
X38975Y-42550D03*
X39975Y-42550D03*
X40975Y-42550D03*
X41975Y-42550D03*
X42975Y-42550D03*
G54D12*
X47400Y-34700D03*
G54D13*
X47400Y-33700D03*
X48400Y-34700D03*
X48400Y-33700D03*
X49400Y-34700D03*
X49400Y-33700D03*
G54D14*
X48010Y-32560D03*
X47510Y-32560D03*
G54D12*
X33150Y-21070D03*
G54D13*
X33150Y-20070D03*
X34150Y-21070D03*
X34150Y-20070D03*
X35150Y-21070D03*
X35150Y-20070D03*
G54D12*
X14755Y-37204D03*
G54D13*
X15755Y-37204D03*
G54D15*
X14998Y-42125D03*
X16513Y-42125D03*
G54D16*
X15256Y-13898D03*
X19744Y-13879D03*
G54D17*
X19232Y-16379D03*
G54D18*
X18760Y-17383D03*
X18248Y-16379D03*
X17736Y-17383D03*
X17264Y-16379D03*
X16752Y-17383D03*
X16240Y-16379D03*
X15768Y-17383D03*
X20118Y-12304D03*
X19114Y-12304D03*
X15886Y-12304D03*
X14882Y-12304D03*
G54D19*
X20512Y-15060D03*
X14449Y-15060D03*
G54D15*
X40075Y-12925D03*
X38559Y-12925D03*
X37043Y-12925D03*
G54D12*
X34100Y-12775D03*
G54D13*
X34100Y-13775D03*
G54D15*
X50050Y-12925D03*
X48534Y-12925D03*
X47018Y-12925D03*
G54D12*
X33150Y-35700D03*
G54D13*
X33150Y-34700D03*
X34150Y-35700D03*
X34150Y-34700D03*
X35150Y-35700D03*
X35150Y-34700D03*
X36150Y-35700D03*
X36150Y-34700D03*
X37150Y-35700D03*
X37150Y-34700D03*
X38150Y-35700D03*
X38150Y-34700D03*
X39150Y-35700D03*
X39150Y-34700D03*
X40150Y-35700D03*
X40150Y-34700D03*
X41150Y-35700D03*
X41150Y-34700D03*
X42150Y-35700D03*
X42150Y-34700D03*
G54D20*
X50838Y-40700D03*
X46165Y-40700D03*
G54D21*
X46750Y-38200D03*
G54D22*
X47250Y-37200D03*
X47750Y-38200D03*
X48250Y-37200D03*
X48750Y-38200D03*
X49250Y-37200D03*
X49750Y-38200D03*
X50250Y-37200D03*
G54D12*
X40000Y-20000D03*
G54D13*
X41000Y-20000D03*
X42000Y-20000D03*
X43000Y-20000D03*
X44000Y-20000D03*
G54D15*
X44250Y-12900D03*
X42734Y-12900D03*
M02*
