G04 (created by PCBNEW (2013-mar-13)-testing) date dim. 23 juin 2013 13:05:40 CEST*
%MOIN*%
G04 Gerber Fmt 3.4, Leading zero omitted, Abs format*
%FSLAX34Y34*%
G01*
G70*
G90*
G04 APERTURE LIST*
%ADD10C,0.005906*%
%ADD11C,0.015000*%
%ADD12C,0.003500*%
G04 APERTURE END LIST*
G54D10*
G54D11*
X52362Y-44488D02*
X12992Y-44488D01*
X52362Y-10629D02*
X52362Y-44488D01*
X52362Y-10629D02*
X12992Y-10629D01*
X12992Y-44488D02*
X12992Y-10629D01*
G54D10*
X14637Y-41735D02*
X14637Y-42515D01*
X15358Y-41735D02*
X15358Y-42515D01*
X14637Y-42515D02*
G75*
G03X15358Y-42515I360J0D01*
G74*
G01*
X15358Y-41735D02*
G75*
G03X14637Y-41735I-360J0D01*
G74*
G01*
X16153Y-41735D02*
X16153Y-42515D01*
X16874Y-41735D02*
X16874Y-42515D01*
X16153Y-42515D02*
G75*
G03X16874Y-42515I360J0D01*
G74*
G01*
X16874Y-41735D02*
G75*
G03X16153Y-41735I-360J0D01*
G74*
G01*
X15934Y-13898D02*
G75*
G03X15934Y-13898I-678J0D01*
G74*
G01*
X20422Y-13879D02*
G75*
G03X20422Y-13879I-678J0D01*
G74*
G01*
X20488Y-12304D02*
G75*
G03X20488Y-12304I-370J0D01*
G74*
G01*
X19484Y-12304D02*
G75*
G03X19484Y-12304I-370J0D01*
G74*
G01*
X16256Y-12304D02*
G75*
G03X16256Y-12304I-370J0D01*
G74*
G01*
X15252Y-12304D02*
G75*
G03X15252Y-12304I-370J0D01*
G74*
G01*
X20982Y-15060D02*
G75*
G03X20982Y-15060I-470J0D01*
G74*
G01*
X14919Y-15060D02*
G75*
G03X14919Y-15060I-470J0D01*
G74*
G01*
X40435Y-13315D02*
X40435Y-12535D01*
X39714Y-13315D02*
X39714Y-12535D01*
X40435Y-12535D02*
G75*
G03X39714Y-12535I-360J0D01*
G74*
G01*
X39714Y-13315D02*
G75*
G03X40435Y-13315I360J0D01*
G74*
G01*
X38919Y-13315D02*
X38919Y-12535D01*
X38198Y-13315D02*
X38198Y-12535D01*
X38919Y-12535D02*
G75*
G03X38198Y-12535I-360J0D01*
G74*
G01*
X38198Y-13315D02*
G75*
G03X38919Y-13315I360J0D01*
G74*
G01*
X37403Y-13315D02*
X37403Y-12535D01*
X36683Y-13315D02*
X36683Y-12535D01*
X37403Y-12535D02*
G75*
G03X36683Y-12535I-360J0D01*
G74*
G01*
X36683Y-13315D02*
G75*
G03X37403Y-13315I360J0D01*
G74*
G01*
X50410Y-13315D02*
X50410Y-12535D01*
X49689Y-13315D02*
X49689Y-12535D01*
X50410Y-12535D02*
G75*
G03X49689Y-12535I-360J0D01*
G74*
G01*
X49689Y-13315D02*
G75*
G03X50410Y-13315I360J0D01*
G74*
G01*
X48894Y-13315D02*
X48894Y-12535D01*
X48173Y-13315D02*
X48173Y-12535D01*
X48894Y-12535D02*
G75*
G03X48173Y-12535I-360J0D01*
G74*
G01*
X48173Y-13315D02*
G75*
G03X48894Y-13315I360J0D01*
G74*
G01*
X47378Y-13315D02*
X47378Y-12535D01*
X46658Y-13315D02*
X46658Y-12535D01*
X47378Y-12535D02*
G75*
G03X46658Y-12535I-360J0D01*
G74*
G01*
X46658Y-13315D02*
G75*
G03X47378Y-13315I360J0D01*
G74*
G01*
G54D12*
X45686Y-25776D02*
X45686Y-25276D01*
X46210Y-25728D02*
X46186Y-25752D01*
X46115Y-25776D01*
X46067Y-25776D01*
X45996Y-25752D01*
X45948Y-25704D01*
X45925Y-25657D01*
X45901Y-25561D01*
X45901Y-25490D01*
X45925Y-25395D01*
X45948Y-25347D01*
X45996Y-25300D01*
X46067Y-25276D01*
X46115Y-25276D01*
X46186Y-25300D01*
X46210Y-25323D01*
X46401Y-25323D02*
X46425Y-25300D01*
X46472Y-25276D01*
X46591Y-25276D01*
X46639Y-25300D01*
X46663Y-25323D01*
X46686Y-25371D01*
X46686Y-25419D01*
X46663Y-25490D01*
X46377Y-25776D01*
X46686Y-25776D01*
X47455Y-20201D02*
X47455Y-19701D01*
X47646Y-19701D01*
X47694Y-19725D01*
X47717Y-19748D01*
X47741Y-19796D01*
X47741Y-19867D01*
X47717Y-19915D01*
X47694Y-19939D01*
X47646Y-19963D01*
X47455Y-19963D01*
X47932Y-19748D02*
X47955Y-19725D01*
X48003Y-19701D01*
X48122Y-19701D01*
X48170Y-19725D01*
X48194Y-19748D01*
X48217Y-19796D01*
X48217Y-19844D01*
X48194Y-19915D01*
X47908Y-20201D01*
X48217Y-20201D01*
M02*
