M48
;DRILL file {Pcbnew (2013-mar-13)-testing} date mar. 25 juin 2013 12:30:22 CEST
;FORMAT={-:-/ absolute / inch / decimal}
FMAT,2
INCH,TZ
T1C0.025
T2C0.032
T3C0.035
T4C0.035
T5C0.039
T6C0.040
T7C0.052
T8C0.052
T9C0.063
T10C0.128
T11C0.128
%
G90
G05
M72
T1
X1.94Y-2.42
X2.0079Y-2.0768
X2.0709Y-2.2677
X2.095Y-4.085
X2.25Y-4.23
X2.305Y-2.22
X2.52Y-2.32
X2.66Y-1.78
X2.73Y-1.485
X2.75Y-1.64
X2.805Y-1.595
X2.81Y-2.065
X2.811Y-2.1417
X2.86Y-1.635
X2.87Y-2.33
X3.Y-1.7625
X3.0325Y-2.8225
X3.04Y-3.37
X3.07Y-2.905
X3.1496Y-2.3327
X3.2126Y-2.811
X3.215Y-2.045
X3.22Y-2.74
X3.2425Y-3.325
X3.31Y-3.335
X3.3228Y-2.5748
X3.35Y-3.9375
X3.3661Y-2.7756
X3.3661Y-2.8346
X3.4Y-2.885
X3.435Y-2.54
X3.45Y-2.89
X3.4547Y-2.2539
X3.46Y-2.99
X3.48Y-2.535
X3.51Y-2.185
X3.5225Y-2.9825
X3.5236Y-3.1398
X3.565Y-1.81
X3.575Y-2.26
X3.59Y-1.765
X3.6Y-1.7
X3.6122Y-2.9429
X3.6319Y-2.9921
X3.66Y-3.32
X3.675Y-2.705
X3.6775Y-2.78
X3.6775Y-2.905
X3.705Y-1.915
X3.72Y-3.26
X3.83Y-2.7675
X3.94Y-2.77
X4.03Y-2.34
X4.045Y-2.7725
X4.095Y-3.72
X4.29Y-2.12
X4.755Y-2.45
X4.755Y-2.56
T2
X4.7075Y-1.8525
X4.8075Y-1.8525
X4.9075Y-1.8525
T3
X1.5768Y-1.7383
X1.624Y-1.6379
X1.6752Y-1.7383
X1.7264Y-1.6379
X1.7736Y-1.7383
X1.8248Y-1.6379
X1.876Y-1.7383
X1.9232Y-1.6379
T4
X4.675Y-3.82
X4.725Y-3.72
X4.775Y-3.82
X4.825Y-3.72
X4.875Y-3.82
X4.925Y-3.72
X4.975Y-3.82
X5.025Y-3.72
T5
X1.4882Y-1.2304
X1.5886Y-1.2304
X1.9114Y-1.2304
X2.0118Y-1.2304
T6
X1.4756Y-3.7205
X1.5756Y-3.7205
X3.315Y-3.47
X3.315Y-3.57
X3.355Y-1.9775
X3.355Y-2.0775
X3.41Y-1.2775
X3.41Y-1.3775
X3.415Y-3.47
X3.415Y-3.57
X3.455Y-1.9775
X3.455Y-2.0775
X3.48Y-4.04
X3.515Y-3.47
X3.515Y-3.57
X3.555Y-1.9775
X3.555Y-2.0775
X3.58Y-4.04
X3.615Y-3.47
X3.615Y-3.57
X3.715Y-3.47
X3.715Y-3.57
X3.7846Y-2.1441
X3.7846Y-2.2441
X3.7846Y-2.3441
X3.7975Y-4.255
X3.815Y-3.47
X3.815Y-3.57
X3.8846Y-2.1441
X3.8846Y-2.2441
X3.8846Y-2.3441
X3.8975Y-4.255
X3.915Y-3.47
X3.915Y-3.57
X3.9975Y-4.255
X4.015Y-3.47
X4.015Y-3.57
X4.0975Y-4.255
X4.115Y-3.47
X4.115Y-3.57
X4.1975Y-4.255
X4.215Y-3.47
X4.215Y-3.57
X4.29Y-2.4025
X4.29Y-2.5025
X4.29Y-2.6025
X4.29Y-2.7025
X4.29Y-2.8025
X4.2975Y-4.255
X4.95Y-3.2425
X4.95Y-3.3425
X4.95Y-3.4425
X5.0025Y-2.4025
X5.0025Y-2.5025
X5.0025Y-2.6025
X5.0025Y-2.7025
X5.0025Y-2.8025
X5.05Y-3.2425
X5.05Y-3.3425
X5.05Y-3.4425
T7
X1.4998Y-4.2126
X1.6514Y-4.2126
T8
X3.7044Y-1.2925
X3.8559Y-1.2925
X4.0075Y-1.2925
X4.7019Y-1.2925
X4.8534Y-1.2925
X5.005Y-1.2925
T9
X1.4449Y-1.506
X2.0512Y-1.506
T10
X1.5256Y-1.3898
X1.9744Y-1.3879
T11
X4.6165Y-4.07
X5.0838Y-4.07
T0
M30
