M48
;DRILL file {Pcbnew (2011-nov-30)-testing} date ven. 21 sept. 2012 13:34:47 CEST
;FORMAT={-:-/ absolute / inch / decimal}
FMAT,2
INCH,TZ
T1C0.025
T2C0.035
T3C0.039
T4C0.040
T5C0.052
T6C0.063
T7C0.128
%
G90
G05
M72
T1
X2.0079Y-4.813
X2.2441Y-6.752
X2.3Y-5.56
X2.4213Y-5.8858
X2.4606Y-5.9646
X2.4902Y-6.5256
X2.5Y-6.0138
X2.5Y-6.1417
X2.5295Y-5.748
X2.5787Y-7.185
X2.5827Y-5.815
X2.6378Y-5.8957
X2.6378Y-5.9941
X2.66Y-5.5
X2.6772Y-5.689
X2.76Y-5.71
X2.7795Y-6.
X2.7953Y-6.1024
X2.7953Y-6.1909
X2.8051Y-3.9961
X2.83Y-5.52
X2.8445Y-5.9055
X2.8642Y-4.1831
X2.9035Y-5.1181
X2.9134Y-4.3406
X2.9233Y-5.8957
X2.9429Y-6.1516
X2.9606Y-6.8937
X3.0217Y-4.9508
X3.0512Y-5.5413
X3.1201Y-5.0984
X3.1732Y-6.1378
X3.189Y-4.9114
X3.2579Y-4.6358
X3.2677Y-6.1142
X3.315Y-6.3189
X3.3268Y-4.7638
X3.4055Y-6.1693
X3.4724Y-4.9409
X3.5138Y-6.0335
X3.5157Y-4.7953
X3.5531Y-5.2067
X3.5551Y-6.4882
X3.6378Y-6.4843
X3.7Y-5.24
X3.7Y-5.3
X3.7283Y-6.2165
X3.752Y-6.1535
X3.86Y-4.515
X3.9Y-4.6
T2
X3.3368Y-4.5133
X3.384Y-4.4129
X3.4352Y-4.5133
X3.4864Y-4.4129
X3.5336Y-4.5133
X3.5848Y-4.4129
X3.636Y-4.5133
X3.6832Y-4.4129
T3
X3.2482Y-4.0054
X3.3486Y-4.0054
X3.6714Y-4.0054
X3.7718Y-4.0054
T4
X2.076Y-4.6063
X2.1547Y-4.8705
X2.1547Y-4.9705
X2.1547Y-5.0705
X2.176Y-4.6063
X2.2039Y-6.4173
X2.2547Y-4.8705
X2.2547Y-4.9705
X2.2547Y-5.0705
X2.3016Y-6.9874
X2.3016Y-7.0874
X2.3039Y-6.4173
X2.3705Y-5.511
X2.3705Y-5.611
X2.4016Y-6.9874
X2.4016Y-7.0874
X2.4705Y-5.511
X2.4705Y-5.611
X2.4961Y-6.4173
X2.5016Y-6.9874
X2.5016Y-7.0874
X2.5705Y-5.511
X2.5705Y-5.611
X2.5961Y-6.4173
X2.6961Y-6.4173
X2.7232Y-6.5937
X2.7232Y-6.6937
X2.7961Y-6.4173
X2.8232Y-6.5937
X2.8232Y-6.6937
X2.8961Y-6.4173
X2.9232Y-6.5937
X2.9232Y-6.6937
X2.9961Y-6.4173
X3.0232Y-6.5937
X3.0232Y-6.6937
X3.1232Y-6.5937
X3.1232Y-6.6937
X3.7591Y-5.6268
X3.7591Y-5.7268
X3.7591Y-5.8268
X3.7591Y-5.9268
X3.7591Y-6.0268
X3.8591Y-5.6268
X3.8591Y-5.7268
X3.8591Y-5.8268
X3.8591Y-5.9268
X3.8591Y-6.0268
T5
X2.282Y-4.25
X2.479Y-4.25
T6
X3.2049Y-4.281
X3.8112Y-4.281
T7
X3.2856Y-4.1648
X3.7344Y-4.1629
T0
M30
