G04 (created by PCBNEW (2012-nov-02)-testing) date mer. 17 avril 2013 15:57:01 CEST*
%MOIN*%
G04 Gerber Fmt 3.4, Leading zero omitted, Abs format*
%FSLAX34Y34*%
G01*
G70*
G90*
G04 APERTURE LIST*
%ADD10C,2.3622e-06*%
%ADD11C,0.015*%
%ADD12R,0.06X0.06*%
%ADD13C,0.06*%
%ADD14O,0.078X0.156*%
%ADD15C,0.063*%
%ADD16C,0.1437*%
%ADD17R,0.0591X0.0591*%
%ADD18C,0.0591*%
%ADD19C,0.07*%
%ADD20R,0.07X0.07*%
%ADD21C,0.035*%
%ADD22C,0.0197*%
%ADD23C,0.1*%
%ADD24C,0.01*%
G04 APERTURE END LIST*
G54D10*
G54D11*
X71500Y-62000D02*
X110900Y-62000D01*
X71500Y-28000D02*
X110900Y-28000D01*
X110900Y-28000D02*
X110800Y-28000D01*
X110900Y-62000D02*
X110900Y-28000D01*
X71500Y-62000D02*
X71500Y-28000D01*
G54D12*
X77150Y-47900D03*
G54D13*
X77150Y-46900D03*
X78150Y-47900D03*
X78150Y-46900D03*
X79150Y-47900D03*
X79150Y-46900D03*
X80150Y-47900D03*
X80150Y-46900D03*
X81150Y-47900D03*
X81150Y-46900D03*
X82150Y-47900D03*
X82150Y-46900D03*
X83150Y-47900D03*
X83150Y-46900D03*
X84150Y-47900D03*
X84150Y-46900D03*
X85150Y-47900D03*
X85150Y-46900D03*
X86150Y-47900D03*
X86150Y-46900D03*
G54D12*
X102600Y-52700D03*
G54D13*
X101600Y-52700D03*
G54D14*
X91860Y-58625D03*
X93830Y-58625D03*
X82000Y-59000D03*
X83515Y-59000D03*
X85031Y-59000D03*
X86547Y-59000D03*
X88062Y-59000D03*
X73500Y-59000D03*
X75015Y-59000D03*
X76531Y-59000D03*
X78047Y-59000D03*
X79562Y-59000D03*
G54D15*
X98953Y-41587D03*
X100803Y-41587D03*
X100803Y-35681D03*
X98953Y-34303D03*
X85453Y-41587D03*
X87303Y-41587D03*
X87303Y-35681D03*
X85453Y-34303D03*
X102953Y-41587D03*
X104803Y-41587D03*
X104803Y-35681D03*
X102953Y-34303D03*
X81453Y-41587D03*
X83303Y-41587D03*
X83303Y-35681D03*
X81453Y-34303D03*
X106953Y-41587D03*
X108803Y-41587D03*
X108803Y-35681D03*
X106953Y-34303D03*
X77453Y-41587D03*
X79303Y-41587D03*
X79303Y-35681D03*
X77453Y-34303D03*
X73453Y-41587D03*
X75303Y-41587D03*
X75303Y-35681D03*
X73453Y-34303D03*
X94953Y-41587D03*
X96803Y-41587D03*
X96803Y-35681D03*
X94953Y-34303D03*
G54D12*
X107400Y-51900D03*
G54D13*
X107400Y-52900D03*
X106400Y-51900D03*
X106400Y-52900D03*
X105400Y-51900D03*
X105400Y-52900D03*
G54D14*
X89390Y-31000D03*
X87420Y-31000D03*
X84590Y-31000D03*
X82620Y-31000D03*
X79790Y-31000D03*
X77820Y-31000D03*
X94990Y-31000D03*
X93020Y-31000D03*
X74990Y-31000D03*
X73020Y-31000D03*
X99790Y-31000D03*
X97820Y-31000D03*
X109390Y-31000D03*
X107420Y-31000D03*
X104590Y-31000D03*
X102620Y-31000D03*
G54D12*
X99950Y-50300D03*
G54D13*
X99950Y-49300D03*
G54D12*
X98950Y-50300D03*
G54D13*
X98950Y-49300D03*
G54D12*
X96950Y-50300D03*
G54D13*
X96950Y-49300D03*
G54D12*
X108200Y-43550D03*
G54D13*
X109200Y-43550D03*
G54D12*
X97950Y-50300D03*
G54D13*
X97950Y-49300D03*
G54D16*
X101913Y-58875D03*
X97240Y-58875D03*
G54D17*
X97825Y-56375D03*
G54D18*
X98325Y-55375D03*
X98825Y-56375D03*
X99325Y-55375D03*
X99825Y-56375D03*
X100325Y-55375D03*
X100825Y-56375D03*
X101325Y-55375D03*
G54D16*
X108838Y-58875D03*
X104165Y-58875D03*
G54D17*
X104750Y-56375D03*
G54D18*
X105250Y-55375D03*
X105750Y-56375D03*
X106250Y-55375D03*
X106750Y-56375D03*
X107250Y-55375D03*
X107750Y-56375D03*
X108250Y-55375D03*
G54D12*
X89900Y-46950D03*
G54D13*
X89900Y-47950D03*
X88900Y-46950D03*
X88900Y-47950D03*
X87900Y-46950D03*
X87900Y-47950D03*
G54D19*
X97600Y-52700D03*
X98600Y-52700D03*
G54D20*
X99600Y-52700D03*
G54D21*
X93500Y-40000D03*
X93750Y-47100D03*
X99900Y-47550D03*
X75000Y-51000D03*
X77750Y-51000D03*
X81000Y-51000D03*
X83750Y-51000D03*
X87250Y-51000D03*
X90500Y-51000D03*
X93750Y-52750D03*
X78500Y-57500D03*
X76000Y-57500D03*
X91750Y-56500D03*
X103600Y-46600D03*
X92500Y-48100D03*
X94400Y-47600D03*
X93500Y-43900D03*
X73500Y-46750D03*
X86500Y-56000D03*
X89250Y-55500D03*
X92500Y-55250D03*
X95300Y-49800D03*
X101150Y-49300D03*
X101800Y-48650D03*
X88800Y-42750D03*
X89300Y-42750D03*
X89800Y-42750D03*
X90300Y-42750D03*
X90800Y-44250D03*
X91300Y-44250D03*
X91800Y-44250D03*
X92300Y-44250D03*
X97400Y-46800D03*
X93900Y-49000D03*
X93700Y-50600D03*
X105500Y-53700D03*
X93200Y-50600D03*
G54D22*
X93500Y-40000D02*
X93500Y-41587D01*
X93500Y-41587D02*
X93500Y-41500D01*
X93500Y-41500D02*
X93500Y-41587D01*
X100700Y-42450D02*
X100700Y-42700D01*
X100700Y-42700D02*
X100700Y-43400D01*
X100700Y-42450D02*
X100700Y-42500D01*
X100700Y-42500D02*
X100700Y-42450D01*
X97600Y-52700D02*
X97600Y-52000D01*
X97600Y-52000D02*
X98200Y-51400D01*
X98200Y-51400D02*
X100300Y-51400D01*
X100300Y-51400D02*
X100700Y-51000D01*
X100700Y-51000D02*
X100700Y-43400D01*
X100700Y-43400D02*
X100700Y-43334D01*
X94953Y-41587D02*
X95816Y-42450D01*
X96050Y-42450D02*
X98900Y-42450D01*
X96050Y-42450D02*
X95816Y-42450D01*
X98900Y-42450D02*
X98900Y-41640D01*
X98900Y-41640D02*
X98953Y-41587D01*
X107000Y-42450D02*
X107000Y-41634D01*
X107000Y-41634D02*
X106953Y-41587D01*
X103000Y-42450D02*
X103000Y-41634D01*
X103000Y-41634D02*
X102953Y-41587D01*
X98900Y-41640D02*
X98953Y-41587D01*
X85400Y-42450D02*
X85400Y-41640D01*
X85400Y-41640D02*
X85453Y-41587D01*
X81400Y-42450D02*
X81400Y-41640D01*
X81400Y-41640D02*
X81453Y-41587D01*
X99400Y-42450D02*
X98900Y-42450D01*
X99400Y-42450D02*
X100700Y-42450D01*
X100700Y-42450D02*
X100950Y-42450D01*
X100950Y-42450D02*
X101150Y-42450D01*
X101150Y-42450D02*
X103000Y-42450D01*
X77500Y-42450D02*
X81400Y-42450D01*
X81400Y-42450D02*
X85400Y-42450D01*
X85400Y-42450D02*
X88150Y-42450D01*
X88150Y-42450D02*
X89013Y-41587D01*
X89013Y-41587D02*
X93500Y-41587D01*
X93500Y-41587D02*
X93900Y-41587D01*
X93900Y-41587D02*
X94953Y-41587D01*
X77500Y-42450D02*
X77500Y-41634D01*
X77500Y-41634D02*
X77453Y-41587D01*
X76453Y-42450D02*
X73850Y-42450D01*
X77500Y-42450D02*
X76500Y-42450D01*
X76453Y-42450D02*
X76500Y-42450D01*
X73453Y-42053D02*
X73453Y-41587D01*
X73850Y-42450D02*
X73453Y-42053D01*
X103500Y-42450D02*
X107000Y-42450D01*
X107000Y-42450D02*
X107450Y-42450D01*
X107450Y-42450D02*
X107850Y-42450D01*
X108200Y-42800D02*
X108200Y-43550D01*
X107850Y-42450D02*
X108200Y-42800D01*
X103000Y-42450D02*
X103500Y-42450D01*
X99600Y-52700D02*
X101600Y-52700D01*
X93300Y-46450D02*
X93450Y-46450D01*
X93750Y-46750D02*
X93750Y-47100D01*
X93450Y-46450D02*
X93750Y-46750D01*
X87900Y-47950D02*
X87400Y-47950D01*
X87100Y-47650D02*
X87100Y-46450D01*
X87400Y-47950D02*
X87100Y-47650D01*
X86150Y-46900D02*
X86600Y-46450D01*
X86600Y-46450D02*
X87100Y-46450D01*
X87100Y-46450D02*
X93300Y-46450D01*
X93300Y-46450D02*
X93350Y-46450D01*
G54D23*
X75303Y-35681D02*
X75303Y-31313D01*
X75303Y-31313D02*
X74990Y-31000D01*
X73020Y-31000D02*
X73020Y-33870D01*
X73020Y-33870D02*
X73453Y-34303D01*
X79303Y-35681D02*
X79303Y-32597D01*
X79790Y-32110D02*
X79790Y-31000D01*
X79303Y-32597D02*
X79790Y-32110D01*
X77453Y-34303D02*
X77453Y-31367D01*
X77453Y-31367D02*
X77820Y-31000D01*
X83303Y-35681D02*
X83303Y-34097D01*
X84590Y-32810D02*
X84590Y-31000D01*
X83303Y-34097D02*
X84590Y-32810D01*
X81453Y-34303D02*
X81453Y-33047D01*
X82620Y-31880D02*
X82620Y-31000D01*
X81453Y-33047D02*
X82620Y-31880D01*
X87303Y-35681D02*
X87303Y-35597D01*
X89390Y-33510D02*
X89390Y-31000D01*
X87303Y-35597D02*
X89390Y-33510D01*
X85453Y-34303D02*
X85453Y-34247D01*
X87420Y-32280D02*
X87420Y-31000D01*
X85453Y-34247D02*
X87420Y-32280D01*
X94990Y-31000D02*
X94990Y-31490D01*
X96803Y-33303D02*
X96803Y-35681D01*
X94990Y-31490D02*
X96803Y-33303D01*
X93020Y-31000D02*
X93020Y-33020D01*
X94303Y-34303D02*
X94953Y-34303D01*
X93020Y-33020D02*
X94303Y-34303D01*
X99790Y-31000D02*
X99800Y-31000D01*
X100803Y-32003D02*
X100803Y-35681D01*
X99800Y-31000D02*
X100803Y-32003D01*
X97820Y-31000D02*
X97820Y-32020D01*
X98953Y-33153D02*
X98953Y-34303D01*
X97820Y-32020D02*
X98953Y-33153D01*
X104803Y-35681D02*
X104803Y-31213D01*
X104803Y-31213D02*
X104590Y-31000D01*
X102620Y-31000D02*
X102620Y-33970D01*
X102620Y-33970D02*
X102953Y-34303D01*
X109390Y-31000D02*
X109390Y-35094D01*
X109390Y-35094D02*
X108803Y-35681D01*
X106953Y-34303D02*
X106953Y-31467D01*
X106953Y-31467D02*
X107420Y-31000D01*
G54D24*
X99825Y-56375D02*
X99825Y-56625D01*
X104600Y-51900D02*
X105400Y-51900D01*
X104200Y-52300D02*
X104600Y-51900D01*
X104200Y-56500D02*
X104200Y-52300D01*
X103700Y-57000D02*
X104200Y-56500D01*
X100200Y-57000D02*
X103700Y-57000D01*
X99825Y-56625D02*
X100200Y-57000D01*
G54D22*
X108250Y-55375D02*
X108250Y-52350D01*
X108250Y-52350D02*
X107800Y-51900D01*
X107800Y-51900D02*
X107400Y-51900D01*
X101325Y-55375D02*
X102700Y-54000D01*
X102700Y-52800D02*
X102600Y-52700D01*
X102700Y-54000D02*
X102700Y-52800D01*
X108250Y-55375D02*
X108250Y-55875D01*
X108250Y-55875D02*
X107750Y-56375D01*
X101325Y-55375D02*
X101325Y-55875D01*
X101325Y-55875D02*
X100825Y-56375D01*
G54D24*
X99950Y-47600D02*
X99950Y-49300D01*
X99900Y-47550D02*
X99950Y-47600D01*
X75000Y-51000D02*
X75500Y-51000D01*
X78150Y-47900D02*
X78150Y-48350D01*
X78150Y-48350D02*
X75500Y-51000D01*
X79150Y-49600D02*
X79150Y-47900D01*
X77750Y-51000D02*
X79150Y-49600D01*
X80150Y-50150D02*
X80150Y-47900D01*
X81000Y-51000D02*
X80150Y-50150D01*
X81150Y-48400D02*
X81150Y-47900D01*
X83750Y-51000D02*
X81150Y-48400D01*
X82150Y-48400D02*
X82150Y-47900D01*
X84500Y-50750D02*
X82150Y-48400D01*
X87000Y-50750D02*
X84500Y-50750D01*
X87250Y-51000D02*
X87000Y-50750D01*
X83150Y-48400D02*
X83150Y-47900D01*
X85250Y-50500D02*
X83150Y-48400D01*
X90000Y-50500D02*
X85250Y-50500D01*
X90500Y-51000D02*
X90000Y-50500D01*
X84150Y-48400D02*
X84150Y-47900D01*
X86000Y-50250D02*
X84150Y-48400D01*
X91250Y-50250D02*
X86000Y-50250D01*
X93750Y-52750D02*
X91250Y-50250D01*
G54D22*
X79562Y-58562D02*
X79562Y-59000D01*
X78500Y-57500D02*
X79562Y-58562D01*
X76000Y-57500D02*
X78500Y-57500D01*
X91750Y-56500D02*
X89250Y-59000D01*
X89250Y-59000D02*
X88062Y-59000D01*
G54D24*
X103600Y-46600D02*
X105200Y-46600D01*
X105200Y-46600D02*
X105300Y-46600D01*
X94400Y-47600D02*
X93200Y-47600D01*
X92700Y-48100D02*
X92500Y-48100D01*
X93200Y-47600D02*
X92700Y-48100D01*
X94400Y-44800D02*
X94400Y-47600D01*
X93500Y-43900D02*
X94400Y-44800D01*
G54D22*
X73500Y-46750D02*
X73500Y-59000D01*
X83515Y-59000D02*
X83515Y-58984D01*
X83515Y-58984D02*
X86500Y-56000D01*
X85031Y-59000D02*
X85031Y-58718D01*
X88500Y-56250D02*
X89250Y-55500D01*
X87500Y-56250D02*
X88500Y-56250D01*
X85031Y-58718D02*
X87500Y-56250D01*
X89547Y-56000D02*
X86547Y-59000D01*
X91750Y-56000D02*
X89547Y-56000D01*
X92000Y-55750D02*
X91750Y-56000D01*
X92500Y-55250D02*
X92000Y-55750D01*
G54D24*
X94150Y-49750D02*
X95250Y-49750D01*
X95250Y-49750D02*
X95300Y-49800D01*
X101150Y-49300D02*
X101800Y-48650D01*
X86050Y-49750D02*
X94150Y-49750D01*
X94150Y-49750D02*
X94200Y-49750D01*
X85150Y-46900D02*
X85150Y-46950D01*
X84650Y-48350D02*
X86050Y-49750D01*
X84650Y-47450D02*
X84650Y-48350D01*
X85150Y-46950D02*
X84650Y-47450D01*
X87650Y-44400D02*
X88450Y-44400D01*
X77150Y-46900D02*
X77150Y-45100D01*
X88800Y-44050D02*
X88800Y-42750D01*
X88450Y-44400D02*
X88800Y-44050D01*
X77850Y-44400D02*
X87650Y-44400D01*
X77150Y-45100D02*
X77850Y-44400D01*
X88200Y-44650D02*
X89000Y-44650D01*
X78150Y-45250D02*
X78750Y-44650D01*
X78750Y-44650D02*
X88200Y-44650D01*
X89000Y-44650D02*
X89300Y-44350D01*
X89300Y-44350D02*
X89300Y-42750D01*
X78150Y-45250D02*
X78150Y-46900D01*
X89500Y-44900D02*
X88700Y-44900D01*
X79150Y-45400D02*
X79650Y-44900D01*
X79650Y-44900D02*
X88700Y-44900D01*
X79150Y-45400D02*
X79150Y-46900D01*
X89500Y-44900D02*
X89550Y-44850D01*
X89800Y-44600D02*
X89800Y-42750D01*
X89500Y-44900D02*
X89550Y-44850D01*
X89550Y-44850D02*
X89800Y-44600D01*
X89200Y-45150D02*
X90000Y-45150D01*
X80150Y-46900D02*
X80150Y-45550D01*
X80150Y-45550D02*
X80550Y-45150D01*
X80550Y-45150D02*
X89200Y-45150D01*
X90000Y-45150D02*
X90300Y-44850D01*
X90300Y-44850D02*
X90300Y-42750D01*
X89500Y-45400D02*
X90350Y-45400D01*
X90350Y-45400D02*
X90800Y-44950D01*
X90800Y-44950D02*
X90800Y-44250D01*
X81150Y-46900D02*
X81150Y-45800D01*
X81550Y-45400D02*
X89500Y-45400D01*
X89500Y-45400D02*
X89550Y-45400D01*
X81150Y-45800D02*
X81550Y-45400D01*
X90150Y-45650D02*
X90950Y-45650D01*
X82150Y-45950D02*
X82450Y-45650D01*
X82450Y-45650D02*
X90150Y-45650D01*
X90950Y-45650D02*
X91300Y-45300D01*
X91300Y-45300D02*
X91300Y-44250D01*
X82150Y-45950D02*
X82150Y-46900D01*
X90550Y-45900D02*
X91350Y-45900D01*
X83150Y-46200D02*
X83450Y-45900D01*
X83450Y-45900D02*
X90550Y-45900D01*
X91350Y-45900D02*
X91800Y-45450D01*
X91800Y-45450D02*
X91800Y-44250D01*
X83150Y-46200D02*
X83150Y-46900D01*
X90800Y-46150D02*
X91600Y-46150D01*
X84150Y-46400D02*
X84400Y-46150D01*
X84400Y-46150D02*
X90800Y-46150D01*
X91600Y-46150D02*
X92300Y-45450D01*
X92300Y-45450D02*
X92300Y-44250D01*
X84150Y-46400D02*
X84150Y-46900D01*
X97400Y-46800D02*
X95200Y-49000D01*
X95200Y-49000D02*
X93900Y-49000D01*
X93100Y-49000D02*
X93200Y-49000D01*
X93100Y-49000D02*
X90850Y-49000D01*
X93200Y-49000D02*
X93900Y-49000D01*
X89900Y-46950D02*
X90350Y-46950D01*
X90850Y-47450D02*
X90850Y-49000D01*
X90350Y-46950D02*
X90850Y-47450D01*
X90850Y-49000D02*
X85600Y-49000D01*
X85150Y-48550D02*
X85150Y-47900D01*
X85600Y-49000D02*
X85150Y-48550D01*
X105750Y-54350D02*
X105750Y-56375D01*
X105900Y-54200D02*
X105750Y-54350D01*
X105900Y-52500D02*
X105900Y-54200D01*
X106400Y-52000D02*
X105900Y-52500D01*
X106400Y-51900D02*
X106400Y-52000D01*
X94700Y-51600D02*
X97400Y-54300D01*
X93700Y-50600D02*
X94700Y-51600D01*
X98350Y-55900D02*
X98825Y-56375D01*
X97800Y-55900D02*
X98350Y-55900D01*
X97600Y-55700D02*
X97800Y-55900D01*
X97600Y-54500D02*
X97600Y-55700D01*
X97400Y-54300D02*
X97600Y-54500D01*
X98825Y-56375D02*
X98825Y-57025D01*
X105750Y-57150D02*
X105750Y-56375D01*
X105600Y-57300D02*
X105750Y-57150D01*
X99100Y-57300D02*
X105600Y-57300D01*
X98825Y-57025D02*
X99100Y-57300D01*
X104750Y-56375D02*
X104750Y-56250D01*
X105500Y-54100D02*
X105500Y-53700D01*
X104700Y-54900D02*
X105500Y-54100D01*
X104700Y-56200D02*
X104700Y-54900D01*
X104750Y-56250D02*
X104700Y-56200D01*
X93200Y-50600D02*
X96300Y-53700D01*
X97200Y-55750D02*
X97825Y-56375D01*
X97200Y-54600D02*
X97200Y-55750D01*
X96300Y-53700D02*
X97200Y-54600D01*
G54D10*
G36*
X90550Y-48700D02*
X90454Y-48700D01*
X90454Y-48031D01*
X90443Y-47813D01*
X90381Y-47662D01*
X90285Y-47634D01*
X89970Y-47950D01*
X90285Y-48265D01*
X90381Y-48237D01*
X90454Y-48031D01*
X90454Y-48700D01*
X90215Y-48700D01*
X90215Y-48335D01*
X89900Y-48020D01*
X89584Y-48335D01*
X89612Y-48431D01*
X89818Y-48504D01*
X90036Y-48493D01*
X90187Y-48431D01*
X90215Y-48335D01*
X90215Y-48700D01*
X86704Y-48700D01*
X86704Y-47981D01*
X86693Y-47763D01*
X86631Y-47612D01*
X86535Y-47584D01*
X86220Y-47900D01*
X86535Y-48215D01*
X86631Y-48187D01*
X86704Y-47981D01*
X86704Y-48700D01*
X86465Y-48700D01*
X86465Y-48285D01*
X86150Y-47970D01*
X85834Y-48285D01*
X85862Y-48381D01*
X86068Y-48454D01*
X86286Y-48443D01*
X86437Y-48381D01*
X86465Y-48285D01*
X86465Y-48700D01*
X85724Y-48700D01*
X85450Y-48425D01*
X85450Y-48371D01*
X85461Y-48366D01*
X85615Y-48211D01*
X85647Y-48136D01*
X85668Y-48187D01*
X85764Y-48215D01*
X86079Y-47900D01*
X85764Y-47584D01*
X85668Y-47612D01*
X85649Y-47667D01*
X85616Y-47588D01*
X85461Y-47434D01*
X85380Y-47400D01*
X85461Y-47366D01*
X85615Y-47211D01*
X85649Y-47130D01*
X85683Y-47211D01*
X85838Y-47365D01*
X85913Y-47397D01*
X85862Y-47418D01*
X85834Y-47514D01*
X86150Y-47829D01*
X86465Y-47514D01*
X86437Y-47418D01*
X86382Y-47399D01*
X86461Y-47366D01*
X86615Y-47211D01*
X86699Y-47009D01*
X86700Y-46842D01*
X86744Y-46798D01*
X86751Y-46798D01*
X86751Y-47650D01*
X86778Y-47783D01*
X86853Y-47896D01*
X87153Y-48196D01*
X87153Y-48196D01*
X87266Y-48271D01*
X87399Y-48298D01*
X87399Y-48298D01*
X87400Y-48298D01*
X87470Y-48298D01*
X87588Y-48415D01*
X87790Y-48499D01*
X88008Y-48500D01*
X88211Y-48416D01*
X88365Y-48261D01*
X88399Y-48180D01*
X88433Y-48261D01*
X88588Y-48415D01*
X88790Y-48499D01*
X89008Y-48500D01*
X89211Y-48416D01*
X89365Y-48261D01*
X89397Y-48186D01*
X89418Y-48237D01*
X89514Y-48265D01*
X89829Y-47950D01*
X89514Y-47634D01*
X89418Y-47662D01*
X89399Y-47717D01*
X89366Y-47638D01*
X89211Y-47484D01*
X89130Y-47450D01*
X89211Y-47416D01*
X89349Y-47277D01*
X89349Y-47299D01*
X89387Y-47391D01*
X89458Y-47461D01*
X89550Y-47499D01*
X89603Y-47500D01*
X89584Y-47564D01*
X89900Y-47879D01*
X90215Y-47564D01*
X90196Y-47500D01*
X90249Y-47500D01*
X90341Y-47462D01*
X90389Y-47413D01*
X90550Y-47574D01*
X90550Y-48700D01*
X90550Y-48700D01*
G37*
G54D24*
X90550Y-48700D02*
X90454Y-48700D01*
X90454Y-48031D01*
X90443Y-47813D01*
X90381Y-47662D01*
X90285Y-47634D01*
X89970Y-47950D01*
X90285Y-48265D01*
X90381Y-48237D01*
X90454Y-48031D01*
X90454Y-48700D01*
X90215Y-48700D01*
X90215Y-48335D01*
X89900Y-48020D01*
X89584Y-48335D01*
X89612Y-48431D01*
X89818Y-48504D01*
X90036Y-48493D01*
X90187Y-48431D01*
X90215Y-48335D01*
X90215Y-48700D01*
X86704Y-48700D01*
X86704Y-47981D01*
X86693Y-47763D01*
X86631Y-47612D01*
X86535Y-47584D01*
X86220Y-47900D01*
X86535Y-48215D01*
X86631Y-48187D01*
X86704Y-47981D01*
X86704Y-48700D01*
X86465Y-48700D01*
X86465Y-48285D01*
X86150Y-47970D01*
X85834Y-48285D01*
X85862Y-48381D01*
X86068Y-48454D01*
X86286Y-48443D01*
X86437Y-48381D01*
X86465Y-48285D01*
X86465Y-48700D01*
X85724Y-48700D01*
X85450Y-48425D01*
X85450Y-48371D01*
X85461Y-48366D01*
X85615Y-48211D01*
X85647Y-48136D01*
X85668Y-48187D01*
X85764Y-48215D01*
X86079Y-47900D01*
X85764Y-47584D01*
X85668Y-47612D01*
X85649Y-47667D01*
X85616Y-47588D01*
X85461Y-47434D01*
X85380Y-47400D01*
X85461Y-47366D01*
X85615Y-47211D01*
X85649Y-47130D01*
X85683Y-47211D01*
X85838Y-47365D01*
X85913Y-47397D01*
X85862Y-47418D01*
X85834Y-47514D01*
X86150Y-47829D01*
X86465Y-47514D01*
X86437Y-47418D01*
X86382Y-47399D01*
X86461Y-47366D01*
X86615Y-47211D01*
X86699Y-47009D01*
X86700Y-46842D01*
X86744Y-46798D01*
X86751Y-46798D01*
X86751Y-47650D01*
X86778Y-47783D01*
X86853Y-47896D01*
X87153Y-48196D01*
X87153Y-48196D01*
X87266Y-48271D01*
X87399Y-48298D01*
X87399Y-48298D01*
X87400Y-48298D01*
X87470Y-48298D01*
X87588Y-48415D01*
X87790Y-48499D01*
X88008Y-48500D01*
X88211Y-48416D01*
X88365Y-48261D01*
X88399Y-48180D01*
X88433Y-48261D01*
X88588Y-48415D01*
X88790Y-48499D01*
X89008Y-48500D01*
X89211Y-48416D01*
X89365Y-48261D01*
X89397Y-48186D01*
X89418Y-48237D01*
X89514Y-48265D01*
X89829Y-47950D01*
X89514Y-47634D01*
X89418Y-47662D01*
X89399Y-47717D01*
X89366Y-47638D01*
X89211Y-47484D01*
X89130Y-47450D01*
X89211Y-47416D01*
X89349Y-47277D01*
X89349Y-47299D01*
X89387Y-47391D01*
X89458Y-47461D01*
X89550Y-47499D01*
X89603Y-47500D01*
X89584Y-47564D01*
X89900Y-47879D01*
X90215Y-47564D01*
X90196Y-47500D01*
X90249Y-47500D01*
X90341Y-47462D01*
X90389Y-47413D01*
X90550Y-47574D01*
X90550Y-48700D01*
G54D10*
G36*
X105326Y-55380D02*
X105255Y-55451D01*
X105250Y-55445D01*
X105244Y-55451D01*
X105173Y-55380D01*
X105179Y-55375D01*
X105173Y-55369D01*
X105244Y-55298D01*
X105250Y-55304D01*
X105255Y-55298D01*
X105326Y-55369D01*
X105320Y-55375D01*
X105326Y-55380D01*
X105326Y-55380D01*
G37*
G54D24*
X105326Y-55380D02*
X105255Y-55451D01*
X105250Y-55445D01*
X105244Y-55451D01*
X105173Y-55380D01*
X105179Y-55375D01*
X105173Y-55369D01*
X105244Y-55298D01*
X105250Y-55304D01*
X105255Y-55298D01*
X105326Y-55369D01*
X105320Y-55375D01*
X105326Y-55380D01*
G54D10*
G36*
X107901Y-54952D02*
X107787Y-55065D01*
X107752Y-55150D01*
X107727Y-55089D01*
X107715Y-55086D01*
X107715Y-53285D01*
X107400Y-52970D01*
X107084Y-53285D01*
X107112Y-53381D01*
X107318Y-53454D01*
X107536Y-53443D01*
X107687Y-53381D01*
X107715Y-53285D01*
X107715Y-55086D01*
X107632Y-55063D01*
X107561Y-55133D01*
X107561Y-54992D01*
X107535Y-54897D01*
X107330Y-54824D01*
X107113Y-54835D01*
X106964Y-54897D01*
X106938Y-54992D01*
X107250Y-55304D01*
X107561Y-54992D01*
X107561Y-55133D01*
X107320Y-55375D01*
X107632Y-55686D01*
X107727Y-55660D01*
X107750Y-55595D01*
X107787Y-55683D01*
X107867Y-55764D01*
X107802Y-55829D01*
X107641Y-55829D01*
X107561Y-55862D01*
X107561Y-55757D01*
X107250Y-55445D01*
X107179Y-55516D01*
X107179Y-55375D01*
X106867Y-55063D01*
X106772Y-55089D01*
X106751Y-55148D01*
X106727Y-55089D01*
X106632Y-55063D01*
X106320Y-55375D01*
X106632Y-55686D01*
X106727Y-55660D01*
X106748Y-55601D01*
X106772Y-55660D01*
X106867Y-55686D01*
X107179Y-55375D01*
X107179Y-55516D01*
X106938Y-55757D01*
X106964Y-55852D01*
X107169Y-55925D01*
X107386Y-55914D01*
X107535Y-55852D01*
X107561Y-55757D01*
X107561Y-55862D01*
X107441Y-55912D01*
X107287Y-56065D01*
X107250Y-56156D01*
X107212Y-56066D01*
X107059Y-55912D01*
X106858Y-55829D01*
X106641Y-55829D01*
X106441Y-55912D01*
X106287Y-56065D01*
X106250Y-56156D01*
X106212Y-56066D01*
X106059Y-55912D01*
X106050Y-55908D01*
X106050Y-55882D01*
X106169Y-55925D01*
X106386Y-55914D01*
X106535Y-55852D01*
X106561Y-55757D01*
X106250Y-55445D01*
X106244Y-55451D01*
X106173Y-55380D01*
X106179Y-55375D01*
X106173Y-55369D01*
X106244Y-55298D01*
X106250Y-55304D01*
X106561Y-54992D01*
X106535Y-54897D01*
X106330Y-54824D01*
X106113Y-54835D01*
X106050Y-54862D01*
X106050Y-54474D01*
X106112Y-54412D01*
X106112Y-54412D01*
X106177Y-54314D01*
X106199Y-54200D01*
X106200Y-54200D01*
X106200Y-53412D01*
X106290Y-53449D01*
X106508Y-53450D01*
X106711Y-53366D01*
X106865Y-53211D01*
X106897Y-53136D01*
X106918Y-53187D01*
X107014Y-53215D01*
X107329Y-52900D01*
X107014Y-52584D01*
X106918Y-52612D01*
X106899Y-52667D01*
X106866Y-52588D01*
X106711Y-52434D01*
X106630Y-52400D01*
X106711Y-52366D01*
X106849Y-52227D01*
X106849Y-52249D01*
X106887Y-52341D01*
X106958Y-52411D01*
X107050Y-52449D01*
X107103Y-52450D01*
X107084Y-52514D01*
X107400Y-52829D01*
X107715Y-52514D01*
X107696Y-52450D01*
X107749Y-52450D01*
X107825Y-52418D01*
X107901Y-52494D01*
X107901Y-52661D01*
X107881Y-52612D01*
X107785Y-52584D01*
X107470Y-52900D01*
X107785Y-53215D01*
X107881Y-53187D01*
X107901Y-53131D01*
X107901Y-54952D01*
X107901Y-54952D01*
G37*
G54D24*
X107901Y-54952D02*
X107787Y-55065D01*
X107752Y-55150D01*
X107727Y-55089D01*
X107715Y-55086D01*
X107715Y-53285D01*
X107400Y-52970D01*
X107084Y-53285D01*
X107112Y-53381D01*
X107318Y-53454D01*
X107536Y-53443D01*
X107687Y-53381D01*
X107715Y-53285D01*
X107715Y-55086D01*
X107632Y-55063D01*
X107561Y-55133D01*
X107561Y-54992D01*
X107535Y-54897D01*
X107330Y-54824D01*
X107113Y-54835D01*
X106964Y-54897D01*
X106938Y-54992D01*
X107250Y-55304D01*
X107561Y-54992D01*
X107561Y-55133D01*
X107320Y-55375D01*
X107632Y-55686D01*
X107727Y-55660D01*
X107750Y-55595D01*
X107787Y-55683D01*
X107867Y-55764D01*
X107802Y-55829D01*
X107641Y-55829D01*
X107561Y-55862D01*
X107561Y-55757D01*
X107250Y-55445D01*
X107179Y-55516D01*
X107179Y-55375D01*
X106867Y-55063D01*
X106772Y-55089D01*
X106751Y-55148D01*
X106727Y-55089D01*
X106632Y-55063D01*
X106320Y-55375D01*
X106632Y-55686D01*
X106727Y-55660D01*
X106748Y-55601D01*
X106772Y-55660D01*
X106867Y-55686D01*
X107179Y-55375D01*
X107179Y-55516D01*
X106938Y-55757D01*
X106964Y-55852D01*
X107169Y-55925D01*
X107386Y-55914D01*
X107535Y-55852D01*
X107561Y-55757D01*
X107561Y-55862D01*
X107441Y-55912D01*
X107287Y-56065D01*
X107250Y-56156D01*
X107212Y-56066D01*
X107059Y-55912D01*
X106858Y-55829D01*
X106641Y-55829D01*
X106441Y-55912D01*
X106287Y-56065D01*
X106250Y-56156D01*
X106212Y-56066D01*
X106059Y-55912D01*
X106050Y-55908D01*
X106050Y-55882D01*
X106169Y-55925D01*
X106386Y-55914D01*
X106535Y-55852D01*
X106561Y-55757D01*
X106250Y-55445D01*
X106244Y-55451D01*
X106173Y-55380D01*
X106179Y-55375D01*
X106173Y-55369D01*
X106244Y-55298D01*
X106250Y-55304D01*
X106561Y-54992D01*
X106535Y-54897D01*
X106330Y-54824D01*
X106113Y-54835D01*
X106050Y-54862D01*
X106050Y-54474D01*
X106112Y-54412D01*
X106112Y-54412D01*
X106177Y-54314D01*
X106199Y-54200D01*
X106200Y-54200D01*
X106200Y-53412D01*
X106290Y-53449D01*
X106508Y-53450D01*
X106711Y-53366D01*
X106865Y-53211D01*
X106897Y-53136D01*
X106918Y-53187D01*
X107014Y-53215D01*
X107329Y-52900D01*
X107014Y-52584D01*
X106918Y-52612D01*
X106899Y-52667D01*
X106866Y-52588D01*
X106711Y-52434D01*
X106630Y-52400D01*
X106711Y-52366D01*
X106849Y-52227D01*
X106849Y-52249D01*
X106887Y-52341D01*
X106958Y-52411D01*
X107050Y-52449D01*
X107103Y-52450D01*
X107084Y-52514D01*
X107400Y-52829D01*
X107715Y-52514D01*
X107696Y-52450D01*
X107749Y-52450D01*
X107825Y-52418D01*
X107901Y-52494D01*
X107901Y-52661D01*
X107881Y-52612D01*
X107785Y-52584D01*
X107470Y-52900D01*
X107785Y-53215D01*
X107881Y-53187D01*
X107901Y-53131D01*
X107901Y-54952D01*
G54D10*
G36*
X110550Y-61550D02*
X109806Y-61550D01*
X109806Y-58683D01*
X109754Y-58557D01*
X109754Y-43631D01*
X109743Y-43413D01*
X109681Y-43262D01*
X109585Y-43234D01*
X109515Y-43305D01*
X109515Y-43164D01*
X109487Y-43068D01*
X109368Y-43026D01*
X109368Y-41475D01*
X109282Y-41267D01*
X109123Y-41108D01*
X108915Y-41022D01*
X108691Y-41021D01*
X108483Y-41107D01*
X108324Y-41266D01*
X108238Y-41474D01*
X108237Y-41698D01*
X108323Y-41906D01*
X108482Y-42065D01*
X108690Y-42151D01*
X108914Y-42152D01*
X109122Y-42066D01*
X109281Y-41907D01*
X109367Y-41699D01*
X109368Y-41475D01*
X109368Y-43026D01*
X109281Y-42995D01*
X109063Y-43006D01*
X108912Y-43068D01*
X108884Y-43164D01*
X109200Y-43479D01*
X109515Y-43164D01*
X109515Y-43305D01*
X109270Y-43550D01*
X109585Y-43865D01*
X109681Y-43837D01*
X109754Y-43631D01*
X109754Y-58557D01*
X109659Y-58327D01*
X109515Y-58182D01*
X109515Y-43935D01*
X109200Y-43620D01*
X108884Y-43935D01*
X108912Y-44031D01*
X109118Y-44104D01*
X109336Y-44093D01*
X109487Y-44031D01*
X109515Y-43935D01*
X109515Y-58182D01*
X109387Y-58054D01*
X109031Y-57906D01*
X108646Y-57906D01*
X108290Y-58053D01*
X108017Y-58325D01*
X107869Y-58681D01*
X107869Y-59066D01*
X108016Y-59422D01*
X108288Y-59695D01*
X108644Y-59843D01*
X109029Y-59843D01*
X109385Y-59696D01*
X109658Y-59424D01*
X109806Y-59068D01*
X109806Y-58683D01*
X109806Y-61550D01*
X105133Y-61550D01*
X105133Y-58683D01*
X104986Y-58327D01*
X104714Y-58054D01*
X104358Y-57906D01*
X103973Y-57906D01*
X103617Y-58053D01*
X103344Y-58325D01*
X103196Y-58681D01*
X103196Y-59066D01*
X103343Y-59422D01*
X103615Y-59695D01*
X103971Y-59843D01*
X104356Y-59843D01*
X104712Y-59696D01*
X104985Y-59424D01*
X105133Y-59068D01*
X105133Y-58683D01*
X105133Y-61550D01*
X102881Y-61550D01*
X102881Y-58683D01*
X102734Y-58327D01*
X102462Y-58054D01*
X102106Y-57906D01*
X101721Y-57906D01*
X101365Y-58053D01*
X101092Y-58325D01*
X100944Y-58681D01*
X100944Y-59066D01*
X101091Y-59422D01*
X101363Y-59695D01*
X101719Y-59843D01*
X102104Y-59843D01*
X102460Y-59696D01*
X102733Y-59424D01*
X102881Y-59068D01*
X102881Y-58683D01*
X102881Y-61550D01*
X98208Y-61550D01*
X98208Y-58683D01*
X98061Y-58327D01*
X97789Y-58054D01*
X97433Y-57906D01*
X97048Y-57906D01*
X96692Y-58053D01*
X96419Y-58325D01*
X96271Y-58681D01*
X96271Y-59066D01*
X96418Y-59422D01*
X96690Y-59695D01*
X97046Y-59843D01*
X97431Y-59843D01*
X97787Y-59696D01*
X98060Y-59424D01*
X98208Y-59068D01*
X98208Y-58683D01*
X98208Y-61550D01*
X94470Y-61550D01*
X94470Y-59065D01*
X94470Y-58675D01*
X93880Y-58675D01*
X93880Y-59590D01*
X93979Y-59637D01*
X94028Y-59625D01*
X94247Y-59502D01*
X94402Y-59306D01*
X94470Y-59065D01*
X94470Y-61550D01*
X93780Y-61550D01*
X93780Y-59590D01*
X93780Y-58675D01*
X93190Y-58675D01*
X93190Y-59065D01*
X93257Y-59306D01*
X93412Y-59502D01*
X93631Y-59625D01*
X93680Y-59637D01*
X93780Y-59590D01*
X93780Y-61550D01*
X89850Y-61550D01*
X89850Y-58892D01*
X91092Y-57650D01*
X91575Y-57650D01*
X91407Y-57762D01*
X91268Y-57969D01*
X91220Y-58214D01*
X91220Y-59035D01*
X91268Y-59280D01*
X91407Y-59487D01*
X91615Y-59626D01*
X91860Y-59675D01*
X92104Y-59626D01*
X92312Y-59487D01*
X92451Y-59280D01*
X92500Y-59035D01*
X92500Y-58214D01*
X92451Y-57969D01*
X92312Y-57762D01*
X92144Y-57650D01*
X93585Y-57650D01*
X93412Y-57747D01*
X93257Y-57943D01*
X93190Y-58185D01*
X93190Y-58575D01*
X93780Y-58575D01*
X93780Y-58567D01*
X93880Y-58567D01*
X93880Y-58575D01*
X94470Y-58575D01*
X94470Y-58185D01*
X94402Y-57943D01*
X94247Y-57747D01*
X94074Y-57650D01*
X96050Y-57650D01*
X96050Y-53874D01*
X96087Y-53912D01*
X96087Y-53912D01*
X96087Y-53912D01*
X96900Y-54724D01*
X96900Y-55750D01*
X96922Y-55864D01*
X96987Y-55962D01*
X97279Y-56253D01*
X97279Y-56720D01*
X97317Y-56811D01*
X97387Y-56882D01*
X97479Y-56920D01*
X97579Y-56920D01*
X98170Y-56920D01*
X98261Y-56882D01*
X98332Y-56812D01*
X98370Y-56720D01*
X98370Y-56691D01*
X98515Y-56837D01*
X98525Y-56841D01*
X98525Y-57025D01*
X98547Y-57139D01*
X98612Y-57237D01*
X98887Y-57512D01*
X98985Y-57577D01*
X99100Y-57600D01*
X105600Y-57600D01*
X105600Y-57599D01*
X105714Y-57577D01*
X105714Y-57577D01*
X105812Y-57512D01*
X105962Y-57362D01*
X105962Y-57362D01*
X106027Y-57264D01*
X106049Y-57150D01*
X106050Y-57150D01*
X106050Y-56841D01*
X106058Y-56837D01*
X106212Y-56684D01*
X106249Y-56593D01*
X106287Y-56683D01*
X106440Y-56837D01*
X106641Y-56920D01*
X106858Y-56920D01*
X107058Y-56837D01*
X107212Y-56684D01*
X107249Y-56593D01*
X107287Y-56683D01*
X107440Y-56837D01*
X107641Y-56920D01*
X107858Y-56920D01*
X108058Y-56837D01*
X108212Y-56684D01*
X108295Y-56483D01*
X108295Y-56322D01*
X108496Y-56121D01*
X108571Y-56008D01*
X108571Y-56008D01*
X108598Y-55875D01*
X108598Y-55797D01*
X108712Y-55684D01*
X108795Y-55483D01*
X108795Y-55266D01*
X108712Y-55066D01*
X108598Y-54951D01*
X108598Y-52350D01*
X108571Y-52216D01*
X108571Y-52216D01*
X108496Y-52103D01*
X108046Y-51653D01*
X107950Y-51589D01*
X107950Y-51550D01*
X107912Y-51458D01*
X107841Y-51388D01*
X107749Y-51350D01*
X107650Y-51349D01*
X107050Y-51349D01*
X106958Y-51387D01*
X106888Y-51458D01*
X106850Y-51550D01*
X106850Y-51572D01*
X106711Y-51434D01*
X106509Y-51350D01*
X106291Y-51349D01*
X106088Y-51433D01*
X105934Y-51588D01*
X105900Y-51669D01*
X105866Y-51588D01*
X105711Y-51434D01*
X105509Y-51350D01*
X105291Y-51349D01*
X105088Y-51433D01*
X104934Y-51588D01*
X104929Y-51600D01*
X104600Y-51600D01*
X104485Y-51622D01*
X104387Y-51687D01*
X103987Y-52087D01*
X103922Y-52185D01*
X103900Y-52300D01*
X103900Y-56375D01*
X103575Y-56700D01*
X101271Y-56700D01*
X101287Y-56684D01*
X101370Y-56483D01*
X101370Y-56322D01*
X101571Y-56121D01*
X101646Y-56008D01*
X101646Y-56008D01*
X101673Y-55875D01*
X101673Y-55797D01*
X101787Y-55684D01*
X101870Y-55483D01*
X101870Y-55322D01*
X102946Y-54246D01*
X102946Y-54246D01*
X102946Y-54246D01*
X103021Y-54133D01*
X103048Y-54000D01*
X103048Y-54000D01*
X103048Y-54000D01*
X103048Y-53205D01*
X103111Y-53141D01*
X103149Y-53049D01*
X103150Y-52950D01*
X103150Y-52350D01*
X103112Y-52258D01*
X103041Y-52188D01*
X102949Y-52150D01*
X102850Y-52149D01*
X102250Y-52149D01*
X102158Y-52187D01*
X102088Y-52258D01*
X102050Y-52350D01*
X102050Y-52372D01*
X101911Y-52234D01*
X101709Y-52150D01*
X101491Y-52149D01*
X101288Y-52233D01*
X101170Y-52351D01*
X100200Y-52351D01*
X100200Y-52300D01*
X100162Y-52208D01*
X100091Y-52138D01*
X99999Y-52100D01*
X99900Y-52099D01*
X99200Y-52099D01*
X99108Y-52137D01*
X99038Y-52208D01*
X99018Y-52254D01*
X98996Y-52232D01*
X98951Y-52277D01*
X98917Y-52177D01*
X98693Y-52095D01*
X98455Y-52105D01*
X98282Y-52177D01*
X98248Y-52277D01*
X98600Y-52629D01*
X98605Y-52623D01*
X98676Y-52694D01*
X98670Y-52700D01*
X98676Y-52705D01*
X98605Y-52776D01*
X98600Y-52770D01*
X98248Y-53122D01*
X98282Y-53222D01*
X98506Y-53304D01*
X98744Y-53294D01*
X98917Y-53222D01*
X98951Y-53122D01*
X98951Y-53122D01*
X98996Y-53167D01*
X99018Y-53145D01*
X99037Y-53191D01*
X99108Y-53261D01*
X99200Y-53299D01*
X99299Y-53300D01*
X99999Y-53300D01*
X100091Y-53262D01*
X100161Y-53191D01*
X100199Y-53099D01*
X100200Y-53048D01*
X101170Y-53048D01*
X101288Y-53165D01*
X101490Y-53249D01*
X101708Y-53250D01*
X101911Y-53166D01*
X102049Y-53027D01*
X102049Y-53049D01*
X102087Y-53141D01*
X102158Y-53211D01*
X102250Y-53249D01*
X102349Y-53250D01*
X102351Y-53250D01*
X102351Y-53855D01*
X101377Y-54829D01*
X101216Y-54829D01*
X101016Y-54912D01*
X100862Y-55065D01*
X100827Y-55150D01*
X100802Y-55089D01*
X100707Y-55063D01*
X100636Y-55133D01*
X100636Y-54992D01*
X100610Y-54897D01*
X100405Y-54824D01*
X100188Y-54835D01*
X100039Y-54897D01*
X100013Y-54992D01*
X100325Y-55304D01*
X100636Y-54992D01*
X100636Y-55133D01*
X100395Y-55375D01*
X100707Y-55686D01*
X100802Y-55660D01*
X100825Y-55595D01*
X100862Y-55683D01*
X100942Y-55764D01*
X100877Y-55829D01*
X100716Y-55829D01*
X100636Y-55862D01*
X100636Y-55757D01*
X100325Y-55445D01*
X100254Y-55516D01*
X100254Y-55375D01*
X99942Y-55063D01*
X99847Y-55089D01*
X99826Y-55148D01*
X99802Y-55089D01*
X99707Y-55063D01*
X99636Y-55133D01*
X99636Y-54992D01*
X99610Y-54897D01*
X99405Y-54824D01*
X99188Y-54835D01*
X99039Y-54897D01*
X99013Y-54992D01*
X99325Y-55304D01*
X99636Y-54992D01*
X99636Y-55133D01*
X99395Y-55375D01*
X99707Y-55686D01*
X99802Y-55660D01*
X99823Y-55601D01*
X99847Y-55660D01*
X99942Y-55686D01*
X100254Y-55375D01*
X100254Y-55516D01*
X100013Y-55757D01*
X100039Y-55852D01*
X100244Y-55925D01*
X100461Y-55914D01*
X100610Y-55852D01*
X100636Y-55757D01*
X100636Y-55862D01*
X100516Y-55912D01*
X100362Y-56065D01*
X100325Y-56156D01*
X100287Y-56066D01*
X100134Y-55912D01*
X99933Y-55829D01*
X99716Y-55829D01*
X99636Y-55862D01*
X99636Y-55757D01*
X99325Y-55445D01*
X99254Y-55516D01*
X99254Y-55375D01*
X98951Y-55072D01*
X98942Y-55063D01*
X98847Y-55089D01*
X98826Y-55148D01*
X98802Y-55089D01*
X98707Y-55063D01*
X98636Y-55133D01*
X98636Y-54992D01*
X98610Y-54897D01*
X98405Y-54824D01*
X98188Y-54835D01*
X98039Y-54897D01*
X98013Y-54992D01*
X98325Y-55304D01*
X98636Y-54992D01*
X98636Y-55133D01*
X98395Y-55375D01*
X98707Y-55686D01*
X98802Y-55660D01*
X98823Y-55601D01*
X98847Y-55660D01*
X98942Y-55686D01*
X99254Y-55375D01*
X99254Y-55516D01*
X99013Y-55757D01*
X99039Y-55852D01*
X99244Y-55925D01*
X99461Y-55914D01*
X99610Y-55852D01*
X99636Y-55757D01*
X99636Y-55862D01*
X99516Y-55912D01*
X99362Y-56065D01*
X99325Y-56156D01*
X99287Y-56066D01*
X99134Y-55912D01*
X98933Y-55829D01*
X98716Y-55829D01*
X98707Y-55833D01*
X98635Y-55761D01*
X98636Y-55757D01*
X98325Y-55445D01*
X98319Y-55451D01*
X98248Y-55380D01*
X98254Y-55375D01*
X97942Y-55063D01*
X97900Y-55075D01*
X97900Y-54500D01*
X97877Y-54385D01*
X97812Y-54287D01*
X97812Y-54287D01*
X97612Y-54087D01*
X97612Y-54087D01*
X97612Y-54087D01*
X96900Y-53375D01*
X96900Y-50787D01*
X96900Y-50350D01*
X96462Y-50350D01*
X96400Y-50412D01*
X96399Y-50649D01*
X96437Y-50741D01*
X96508Y-50811D01*
X96600Y-50849D01*
X96699Y-50850D01*
X96837Y-50850D01*
X96900Y-50787D01*
X96900Y-53375D01*
X94912Y-51387D01*
X94912Y-51387D01*
X94912Y-51387D01*
X94124Y-50600D01*
X94125Y-50515D01*
X94060Y-50359D01*
X93941Y-50239D01*
X93784Y-50175D01*
X93615Y-50174D01*
X93459Y-50239D01*
X93450Y-50248D01*
X93441Y-50239D01*
X93284Y-50175D01*
X93115Y-50174D01*
X92959Y-50239D01*
X92839Y-50358D01*
X92775Y-50515D01*
X92774Y-50684D01*
X92839Y-50840D01*
X92958Y-50960D01*
X93115Y-51024D01*
X93200Y-51025D01*
X95525Y-53350D01*
X73848Y-53350D01*
X73848Y-50850D01*
X74602Y-50850D01*
X74575Y-50915D01*
X74574Y-51084D01*
X74639Y-51240D01*
X74758Y-51360D01*
X74915Y-51424D01*
X75084Y-51425D01*
X75240Y-51360D01*
X75301Y-51300D01*
X75500Y-51300D01*
X75500Y-51299D01*
X75614Y-51277D01*
X75614Y-51277D01*
X75712Y-51212D01*
X78362Y-48562D01*
X78362Y-48562D01*
X78427Y-48464D01*
X78445Y-48373D01*
X78461Y-48366D01*
X78615Y-48211D01*
X78649Y-48130D01*
X78683Y-48211D01*
X78838Y-48365D01*
X78850Y-48370D01*
X78850Y-49475D01*
X77750Y-50575D01*
X77665Y-50574D01*
X77509Y-50639D01*
X77389Y-50758D01*
X77325Y-50915D01*
X77324Y-51084D01*
X77389Y-51240D01*
X77508Y-51360D01*
X77665Y-51424D01*
X77834Y-51425D01*
X77990Y-51360D01*
X78110Y-51241D01*
X78174Y-51084D01*
X78175Y-50999D01*
X79362Y-49812D01*
X79362Y-49812D01*
X79427Y-49714D01*
X79449Y-49600D01*
X79450Y-49600D01*
X79450Y-48371D01*
X79461Y-48366D01*
X79615Y-48211D01*
X79649Y-48130D01*
X79683Y-48211D01*
X79838Y-48365D01*
X79850Y-48370D01*
X79850Y-50150D01*
X79872Y-50264D01*
X79937Y-50362D01*
X80575Y-50999D01*
X80574Y-51084D01*
X80639Y-51240D01*
X80758Y-51360D01*
X80915Y-51424D01*
X81084Y-51425D01*
X81240Y-51360D01*
X81360Y-51241D01*
X81424Y-51084D01*
X81425Y-50915D01*
X81360Y-50759D01*
X81241Y-50639D01*
X81084Y-50575D01*
X80999Y-50574D01*
X80450Y-50025D01*
X80450Y-48371D01*
X80461Y-48366D01*
X80615Y-48211D01*
X80649Y-48130D01*
X80683Y-48211D01*
X80838Y-48365D01*
X80850Y-48370D01*
X80850Y-48400D01*
X80872Y-48514D01*
X80937Y-48612D01*
X83325Y-50999D01*
X83324Y-51084D01*
X83389Y-51240D01*
X83508Y-51360D01*
X83665Y-51424D01*
X83834Y-51425D01*
X83990Y-51360D01*
X84110Y-51241D01*
X84174Y-51084D01*
X84175Y-50915D01*
X84128Y-50802D01*
X84287Y-50962D01*
X84287Y-50962D01*
X84385Y-51027D01*
X84499Y-51049D01*
X84500Y-51050D01*
X86824Y-51050D01*
X86824Y-51084D01*
X86889Y-51240D01*
X87008Y-51360D01*
X87165Y-51424D01*
X87334Y-51425D01*
X87490Y-51360D01*
X87610Y-51241D01*
X87674Y-51084D01*
X87675Y-50915D01*
X87627Y-50800D01*
X89875Y-50800D01*
X90075Y-50999D01*
X90074Y-51084D01*
X90139Y-51240D01*
X90258Y-51360D01*
X90415Y-51424D01*
X90584Y-51425D01*
X90740Y-51360D01*
X90860Y-51241D01*
X90924Y-51084D01*
X90925Y-50915D01*
X90860Y-50759D01*
X90741Y-50639D01*
X90584Y-50575D01*
X90499Y-50574D01*
X90474Y-50550D01*
X91125Y-50550D01*
X93325Y-52749D01*
X93324Y-52834D01*
X93389Y-52990D01*
X93508Y-53110D01*
X93665Y-53174D01*
X93834Y-53175D01*
X93990Y-53110D01*
X94110Y-52991D01*
X94174Y-52834D01*
X94175Y-52665D01*
X94110Y-52509D01*
X93991Y-52389D01*
X93834Y-52325D01*
X93749Y-52324D01*
X91474Y-50050D01*
X94150Y-50050D01*
X94200Y-50050D01*
X94949Y-50050D01*
X95058Y-50160D01*
X95215Y-50224D01*
X95384Y-50225D01*
X95540Y-50160D01*
X95660Y-50041D01*
X95724Y-49884D01*
X95725Y-49715D01*
X95660Y-49559D01*
X95541Y-49439D01*
X95384Y-49375D01*
X95215Y-49374D01*
X95059Y-49439D01*
X95049Y-49450D01*
X94200Y-49450D01*
X94150Y-49450D01*
X86174Y-49450D01*
X86024Y-49300D01*
X90850Y-49300D01*
X93100Y-49300D01*
X93200Y-49300D01*
X93598Y-49300D01*
X93658Y-49360D01*
X93815Y-49424D01*
X93984Y-49425D01*
X94140Y-49360D01*
X94201Y-49300D01*
X95200Y-49300D01*
X95200Y-49299D01*
X95314Y-49277D01*
X95314Y-49277D01*
X95412Y-49212D01*
X97399Y-47224D01*
X97484Y-47225D01*
X97640Y-47160D01*
X97760Y-47041D01*
X97824Y-46884D01*
X97825Y-46715D01*
X97760Y-46559D01*
X97641Y-46439D01*
X97484Y-46375D01*
X97315Y-46374D01*
X97159Y-46439D01*
X97039Y-46558D01*
X96975Y-46715D01*
X96974Y-46800D01*
X95075Y-48700D01*
X94201Y-48700D01*
X94141Y-48639D01*
X93984Y-48575D01*
X93815Y-48574D01*
X93659Y-48639D01*
X93598Y-48700D01*
X93200Y-48700D01*
X93100Y-48700D01*
X91150Y-48700D01*
X91150Y-47450D01*
X91127Y-47335D01*
X91062Y-47237D01*
X91062Y-47237D01*
X90622Y-46798D01*
X93300Y-46798D01*
X93305Y-46798D01*
X93382Y-46875D01*
X93325Y-47015D01*
X93324Y-47184D01*
X93389Y-47340D01*
X93508Y-47460D01*
X93665Y-47524D01*
X93834Y-47525D01*
X93990Y-47460D01*
X94110Y-47341D01*
X94174Y-47184D01*
X94175Y-47015D01*
X94110Y-46859D01*
X94098Y-46847D01*
X94098Y-46750D01*
X94098Y-46749D01*
X94098Y-46749D01*
X94071Y-46616D01*
X93996Y-46503D01*
X93996Y-46503D01*
X93696Y-46203D01*
X93583Y-46128D01*
X93450Y-46101D01*
X93350Y-46101D01*
X93300Y-46101D01*
X92072Y-46101D01*
X92512Y-45662D01*
X92512Y-45662D01*
X92577Y-45564D01*
X92599Y-45450D01*
X92600Y-45450D01*
X92600Y-44551D01*
X92660Y-44491D01*
X92724Y-44334D01*
X92725Y-44165D01*
X92660Y-44009D01*
X92541Y-43889D01*
X92384Y-43825D01*
X92215Y-43824D01*
X92059Y-43889D01*
X92050Y-43898D01*
X92041Y-43889D01*
X91884Y-43825D01*
X91715Y-43824D01*
X91559Y-43889D01*
X91550Y-43898D01*
X91541Y-43889D01*
X91384Y-43825D01*
X91215Y-43824D01*
X91059Y-43889D01*
X91050Y-43898D01*
X91041Y-43889D01*
X90884Y-43825D01*
X90715Y-43824D01*
X90600Y-43872D01*
X90600Y-43051D01*
X90660Y-42991D01*
X90724Y-42834D01*
X90725Y-42665D01*
X90660Y-42509D01*
X90541Y-42389D01*
X90384Y-42325D01*
X90215Y-42324D01*
X90059Y-42389D01*
X90050Y-42398D01*
X90041Y-42389D01*
X89884Y-42325D01*
X89715Y-42324D01*
X89559Y-42389D01*
X89550Y-42398D01*
X89541Y-42389D01*
X89384Y-42325D01*
X89215Y-42324D01*
X89059Y-42389D01*
X89050Y-42398D01*
X89041Y-42389D01*
X88884Y-42325D01*
X88767Y-42324D01*
X89157Y-41935D01*
X93500Y-41935D01*
X93900Y-41935D01*
X94502Y-41935D01*
X94632Y-42065D01*
X94840Y-42151D01*
X95025Y-42152D01*
X95569Y-42696D01*
X95682Y-42771D01*
X95816Y-42798D01*
X96050Y-42798D01*
X98900Y-42798D01*
X99400Y-42798D01*
X100351Y-42798D01*
X100351Y-43334D01*
X100351Y-43400D01*
X100351Y-48923D01*
X100261Y-48834D01*
X100250Y-48829D01*
X100250Y-47801D01*
X100260Y-47791D01*
X100324Y-47634D01*
X100325Y-47465D01*
X100260Y-47309D01*
X100141Y-47189D01*
X99984Y-47125D01*
X99815Y-47124D01*
X99659Y-47189D01*
X99539Y-47308D01*
X99475Y-47465D01*
X99474Y-47634D01*
X99539Y-47790D01*
X99650Y-47901D01*
X99650Y-48828D01*
X99638Y-48833D01*
X99484Y-48988D01*
X99450Y-49069D01*
X99416Y-48988D01*
X99261Y-48834D01*
X99059Y-48750D01*
X98841Y-48749D01*
X98638Y-48833D01*
X98484Y-48988D01*
X98450Y-49069D01*
X98416Y-48988D01*
X98261Y-48834D01*
X98059Y-48750D01*
X97841Y-48749D01*
X97638Y-48833D01*
X97484Y-48988D01*
X97450Y-49069D01*
X97416Y-48988D01*
X97261Y-48834D01*
X97059Y-48750D01*
X96841Y-48749D01*
X96638Y-48833D01*
X96484Y-48988D01*
X96400Y-49190D01*
X96399Y-49408D01*
X96483Y-49611D01*
X96622Y-49750D01*
X96600Y-49750D01*
X96508Y-49788D01*
X96437Y-49858D01*
X96399Y-49950D01*
X96400Y-50187D01*
X96462Y-50250D01*
X96900Y-50250D01*
X96900Y-50242D01*
X97000Y-50242D01*
X97000Y-50250D01*
X97437Y-50250D01*
X97450Y-50237D01*
X97462Y-50250D01*
X97900Y-50250D01*
X97900Y-50242D01*
X98000Y-50242D01*
X98000Y-50250D01*
X98437Y-50250D01*
X98450Y-50237D01*
X98462Y-50250D01*
X98900Y-50250D01*
X98900Y-50242D01*
X99000Y-50242D01*
X99000Y-50250D01*
X99437Y-50250D01*
X99450Y-50237D01*
X99462Y-50250D01*
X99900Y-50250D01*
X99900Y-50242D01*
X100000Y-50242D01*
X100000Y-50250D01*
X100007Y-50250D01*
X100007Y-50350D01*
X100000Y-50350D01*
X100000Y-50787D01*
X100062Y-50850D01*
X100200Y-50850D01*
X100299Y-50849D01*
X100351Y-50828D01*
X100351Y-50855D01*
X100155Y-51051D01*
X99900Y-51051D01*
X99900Y-50787D01*
X99900Y-50350D01*
X99462Y-50350D01*
X99450Y-50362D01*
X99437Y-50350D01*
X99000Y-50350D01*
X99000Y-50787D01*
X99062Y-50850D01*
X99200Y-50850D01*
X99299Y-50849D01*
X99391Y-50811D01*
X99450Y-50753D01*
X99508Y-50811D01*
X99600Y-50849D01*
X99699Y-50850D01*
X99837Y-50850D01*
X99900Y-50787D01*
X99900Y-51051D01*
X98900Y-51051D01*
X98900Y-50787D01*
X98900Y-50350D01*
X98462Y-50350D01*
X98450Y-50362D01*
X98437Y-50350D01*
X98000Y-50350D01*
X98000Y-50787D01*
X98062Y-50850D01*
X98200Y-50850D01*
X98299Y-50849D01*
X98391Y-50811D01*
X98450Y-50753D01*
X98508Y-50811D01*
X98600Y-50849D01*
X98699Y-50850D01*
X98837Y-50850D01*
X98900Y-50787D01*
X98900Y-51051D01*
X98200Y-51051D01*
X98066Y-51078D01*
X97953Y-51153D01*
X97900Y-51207D01*
X97900Y-50787D01*
X97900Y-50350D01*
X97462Y-50350D01*
X97450Y-50362D01*
X97437Y-50350D01*
X97000Y-50350D01*
X97000Y-50787D01*
X97062Y-50850D01*
X97200Y-50850D01*
X97299Y-50849D01*
X97391Y-50811D01*
X97450Y-50753D01*
X97508Y-50811D01*
X97600Y-50849D01*
X97699Y-50850D01*
X97837Y-50850D01*
X97900Y-50787D01*
X97900Y-51207D01*
X97353Y-51753D01*
X97278Y-51866D01*
X97251Y-52000D01*
X97251Y-52200D01*
X97091Y-52359D01*
X97000Y-52580D01*
X96999Y-52818D01*
X97091Y-53039D01*
X97259Y-53208D01*
X97480Y-53299D01*
X97718Y-53300D01*
X97939Y-53208D01*
X98108Y-53040D01*
X98112Y-53029D01*
X98177Y-53051D01*
X98529Y-52700D01*
X98177Y-52348D01*
X98112Y-52370D01*
X98108Y-52360D01*
X97948Y-52199D01*
X97948Y-52144D01*
X98344Y-51748D01*
X100300Y-51748D01*
X100433Y-51721D01*
X100433Y-51721D01*
X100546Y-51646D01*
X100946Y-51246D01*
X100946Y-51246D01*
X100946Y-51246D01*
X101021Y-51133D01*
X101048Y-51000D01*
X101048Y-51000D01*
X101048Y-51000D01*
X101048Y-49718D01*
X101065Y-49724D01*
X101234Y-49725D01*
X101390Y-49660D01*
X101510Y-49541D01*
X101574Y-49384D01*
X101575Y-49299D01*
X101799Y-49074D01*
X101884Y-49075D01*
X102040Y-49010D01*
X102160Y-48891D01*
X102224Y-48734D01*
X102225Y-48565D01*
X102160Y-48409D01*
X102041Y-48289D01*
X101884Y-48225D01*
X101715Y-48224D01*
X101559Y-48289D01*
X101439Y-48408D01*
X101375Y-48565D01*
X101374Y-48650D01*
X101150Y-48875D01*
X101065Y-48874D01*
X101048Y-48882D01*
X101048Y-43400D01*
X101048Y-43334D01*
X101048Y-42798D01*
X101150Y-42798D01*
X103000Y-42798D01*
X103500Y-42798D01*
X107000Y-42798D01*
X107450Y-42798D01*
X107705Y-42798D01*
X107851Y-42944D01*
X107851Y-42999D01*
X107850Y-42999D01*
X107758Y-43037D01*
X107688Y-43108D01*
X107650Y-43200D01*
X107649Y-43299D01*
X107649Y-43899D01*
X107687Y-43991D01*
X107758Y-44061D01*
X107850Y-44099D01*
X107949Y-44100D01*
X108549Y-44100D01*
X108641Y-44062D01*
X108711Y-43991D01*
X108749Y-43899D01*
X108750Y-43846D01*
X108814Y-43865D01*
X109129Y-43550D01*
X108814Y-43234D01*
X108750Y-43253D01*
X108750Y-43200D01*
X108712Y-43108D01*
X108641Y-43038D01*
X108549Y-43000D01*
X108548Y-43000D01*
X108548Y-42800D01*
X108548Y-42799D01*
X108548Y-42799D01*
X108521Y-42666D01*
X108446Y-42553D01*
X108446Y-42553D01*
X108096Y-42203D01*
X107983Y-42128D01*
X107850Y-42101D01*
X107450Y-42101D01*
X107348Y-42101D01*
X107348Y-41990D01*
X107431Y-41907D01*
X107517Y-41699D01*
X107518Y-41475D01*
X107432Y-41267D01*
X107273Y-41108D01*
X107065Y-41022D01*
X106841Y-41021D01*
X106633Y-41107D01*
X106474Y-41266D01*
X106388Y-41474D01*
X106387Y-41698D01*
X106473Y-41906D01*
X106632Y-42065D01*
X106651Y-42073D01*
X106651Y-42101D01*
X105037Y-42101D01*
X105122Y-42066D01*
X105281Y-41907D01*
X105367Y-41699D01*
X105368Y-41475D01*
X105282Y-41267D01*
X105123Y-41108D01*
X104915Y-41022D01*
X104691Y-41021D01*
X104483Y-41107D01*
X104324Y-41266D01*
X104238Y-41474D01*
X104237Y-41698D01*
X104323Y-41906D01*
X104482Y-42065D01*
X104568Y-42101D01*
X103500Y-42101D01*
X103348Y-42101D01*
X103348Y-41990D01*
X103431Y-41907D01*
X103517Y-41699D01*
X103518Y-41475D01*
X103432Y-41267D01*
X103273Y-41108D01*
X103065Y-41022D01*
X102841Y-41021D01*
X102633Y-41107D01*
X102474Y-41266D01*
X102388Y-41474D01*
X102387Y-41698D01*
X102473Y-41906D01*
X102632Y-42065D01*
X102651Y-42073D01*
X102651Y-42101D01*
X101150Y-42101D01*
X101037Y-42101D01*
X101122Y-42066D01*
X101281Y-41907D01*
X101367Y-41699D01*
X101368Y-41475D01*
X101282Y-41267D01*
X101123Y-41108D01*
X100915Y-41022D01*
X100691Y-41021D01*
X100483Y-41107D01*
X100324Y-41266D01*
X100238Y-41474D01*
X100237Y-41698D01*
X100323Y-41906D01*
X100482Y-42065D01*
X100568Y-42101D01*
X99400Y-42101D01*
X99248Y-42101D01*
X99248Y-42076D01*
X99272Y-42066D01*
X99431Y-41907D01*
X99517Y-41699D01*
X99518Y-41475D01*
X99432Y-41267D01*
X99273Y-41108D01*
X99065Y-41022D01*
X98841Y-41021D01*
X98633Y-41107D01*
X98474Y-41266D01*
X98388Y-41474D01*
X98387Y-41698D01*
X98473Y-41906D01*
X98551Y-41984D01*
X98551Y-42101D01*
X97037Y-42101D01*
X97122Y-42066D01*
X97281Y-41907D01*
X97367Y-41699D01*
X97368Y-41475D01*
X97282Y-41267D01*
X97123Y-41108D01*
X96915Y-41022D01*
X96691Y-41021D01*
X96483Y-41107D01*
X96324Y-41266D01*
X96238Y-41474D01*
X96237Y-41698D01*
X96323Y-41906D01*
X96482Y-42065D01*
X96568Y-42101D01*
X96050Y-42101D01*
X95960Y-42101D01*
X95517Y-41659D01*
X95518Y-41475D01*
X95432Y-41267D01*
X95273Y-41108D01*
X95065Y-41022D01*
X94841Y-41021D01*
X94633Y-41107D01*
X94502Y-41238D01*
X93900Y-41238D01*
X93848Y-41238D01*
X93848Y-40252D01*
X93860Y-40241D01*
X93924Y-40084D01*
X93925Y-39915D01*
X93860Y-39759D01*
X93741Y-39639D01*
X93584Y-39575D01*
X93415Y-39574D01*
X93259Y-39639D01*
X93139Y-39758D01*
X93075Y-39915D01*
X93074Y-40084D01*
X93139Y-40240D01*
X93151Y-40252D01*
X93151Y-41238D01*
X89013Y-41238D01*
X88879Y-41265D01*
X88766Y-41340D01*
X88005Y-42101D01*
X87537Y-42101D01*
X87622Y-42066D01*
X87781Y-41907D01*
X87867Y-41699D01*
X87868Y-41475D01*
X87782Y-41267D01*
X87623Y-41108D01*
X87415Y-41022D01*
X87191Y-41021D01*
X86983Y-41107D01*
X86824Y-41266D01*
X86738Y-41474D01*
X86737Y-41698D01*
X86823Y-41906D01*
X86982Y-42065D01*
X87068Y-42101D01*
X85748Y-42101D01*
X85748Y-42076D01*
X85772Y-42066D01*
X85931Y-41907D01*
X86017Y-41699D01*
X86018Y-41475D01*
X85932Y-41267D01*
X85773Y-41108D01*
X85565Y-41022D01*
X85341Y-41021D01*
X85133Y-41107D01*
X84974Y-41266D01*
X84888Y-41474D01*
X84887Y-41698D01*
X84973Y-41906D01*
X85051Y-41984D01*
X85051Y-42101D01*
X83537Y-42101D01*
X83622Y-42066D01*
X83781Y-41907D01*
X83867Y-41699D01*
X83868Y-41475D01*
X83782Y-41267D01*
X83623Y-41108D01*
X83415Y-41022D01*
X83191Y-41021D01*
X82983Y-41107D01*
X82824Y-41266D01*
X82738Y-41474D01*
X82737Y-41698D01*
X82823Y-41906D01*
X82982Y-42065D01*
X83068Y-42101D01*
X81748Y-42101D01*
X81748Y-42076D01*
X81772Y-42066D01*
X81931Y-41907D01*
X82017Y-41699D01*
X82018Y-41475D01*
X81932Y-41267D01*
X81773Y-41108D01*
X81565Y-41022D01*
X81341Y-41021D01*
X81133Y-41107D01*
X80974Y-41266D01*
X80888Y-41474D01*
X80887Y-41698D01*
X80973Y-41906D01*
X81051Y-41984D01*
X81051Y-42101D01*
X79537Y-42101D01*
X79622Y-42066D01*
X79781Y-41907D01*
X79867Y-41699D01*
X79868Y-41475D01*
X79782Y-41267D01*
X79623Y-41108D01*
X79415Y-41022D01*
X79191Y-41021D01*
X78983Y-41107D01*
X78824Y-41266D01*
X78738Y-41474D01*
X78737Y-41698D01*
X78823Y-41906D01*
X78982Y-42065D01*
X79068Y-42101D01*
X77848Y-42101D01*
X77848Y-41990D01*
X77931Y-41907D01*
X78017Y-41699D01*
X78018Y-41475D01*
X77932Y-41267D01*
X77773Y-41108D01*
X77565Y-41022D01*
X77341Y-41021D01*
X77133Y-41107D01*
X76974Y-41266D01*
X76888Y-41474D01*
X76887Y-41698D01*
X76973Y-41906D01*
X77132Y-42065D01*
X77151Y-42073D01*
X77151Y-42101D01*
X76500Y-42101D01*
X76453Y-42101D01*
X75537Y-42101D01*
X75622Y-42066D01*
X75781Y-41907D01*
X75867Y-41699D01*
X75868Y-41475D01*
X75782Y-41267D01*
X75623Y-41108D01*
X75415Y-41022D01*
X75191Y-41021D01*
X74983Y-41107D01*
X74824Y-41266D01*
X74738Y-41474D01*
X74737Y-41698D01*
X74823Y-41906D01*
X74982Y-42065D01*
X75068Y-42101D01*
X73994Y-42101D01*
X73865Y-41973D01*
X73931Y-41907D01*
X74017Y-41699D01*
X74018Y-41475D01*
X73932Y-41267D01*
X73773Y-41108D01*
X73565Y-41022D01*
X73341Y-41021D01*
X73133Y-41107D01*
X72974Y-41266D01*
X72888Y-41474D01*
X72887Y-41698D01*
X72973Y-41906D01*
X73104Y-42037D01*
X73104Y-42053D01*
X73131Y-42186D01*
X73206Y-42299D01*
X73603Y-42696D01*
X73603Y-42696D01*
X73716Y-42771D01*
X73850Y-42798D01*
X76453Y-42798D01*
X76500Y-42798D01*
X77500Y-42798D01*
X81400Y-42798D01*
X85400Y-42798D01*
X88150Y-42798D01*
X88283Y-42771D01*
X88283Y-42771D01*
X88375Y-42710D01*
X88374Y-42834D01*
X88439Y-42990D01*
X88500Y-43051D01*
X88500Y-43925D01*
X88325Y-44100D01*
X87650Y-44100D01*
X77850Y-44100D01*
X77735Y-44122D01*
X77637Y-44187D01*
X76937Y-44887D01*
X76872Y-44985D01*
X76850Y-45100D01*
X76850Y-46428D01*
X76838Y-46433D01*
X76684Y-46588D01*
X76600Y-46790D01*
X76599Y-47008D01*
X76683Y-47211D01*
X76822Y-47349D01*
X76800Y-47349D01*
X76708Y-47387D01*
X76638Y-47458D01*
X76600Y-47550D01*
X76599Y-47649D01*
X76599Y-48249D01*
X76637Y-48341D01*
X76708Y-48411D01*
X76800Y-48449D01*
X76899Y-48450D01*
X77499Y-48450D01*
X77591Y-48412D01*
X77661Y-48341D01*
X77699Y-48249D01*
X77699Y-48227D01*
X77773Y-48301D01*
X75375Y-50700D01*
X75301Y-50700D01*
X75241Y-50639D01*
X75084Y-50575D01*
X74915Y-50574D01*
X74850Y-50602D01*
X74850Y-45150D01*
X71850Y-45150D01*
X71850Y-39050D01*
X110550Y-39050D01*
X110550Y-61550D01*
X110550Y-61550D01*
G37*
G54D24*
X110550Y-61550D02*
X109806Y-61550D01*
X109806Y-58683D01*
X109754Y-58557D01*
X109754Y-43631D01*
X109743Y-43413D01*
X109681Y-43262D01*
X109585Y-43234D01*
X109515Y-43305D01*
X109515Y-43164D01*
X109487Y-43068D01*
X109368Y-43026D01*
X109368Y-41475D01*
X109282Y-41267D01*
X109123Y-41108D01*
X108915Y-41022D01*
X108691Y-41021D01*
X108483Y-41107D01*
X108324Y-41266D01*
X108238Y-41474D01*
X108237Y-41698D01*
X108323Y-41906D01*
X108482Y-42065D01*
X108690Y-42151D01*
X108914Y-42152D01*
X109122Y-42066D01*
X109281Y-41907D01*
X109367Y-41699D01*
X109368Y-41475D01*
X109368Y-43026D01*
X109281Y-42995D01*
X109063Y-43006D01*
X108912Y-43068D01*
X108884Y-43164D01*
X109200Y-43479D01*
X109515Y-43164D01*
X109515Y-43305D01*
X109270Y-43550D01*
X109585Y-43865D01*
X109681Y-43837D01*
X109754Y-43631D01*
X109754Y-58557D01*
X109659Y-58327D01*
X109515Y-58182D01*
X109515Y-43935D01*
X109200Y-43620D01*
X108884Y-43935D01*
X108912Y-44031D01*
X109118Y-44104D01*
X109336Y-44093D01*
X109487Y-44031D01*
X109515Y-43935D01*
X109515Y-58182D01*
X109387Y-58054D01*
X109031Y-57906D01*
X108646Y-57906D01*
X108290Y-58053D01*
X108017Y-58325D01*
X107869Y-58681D01*
X107869Y-59066D01*
X108016Y-59422D01*
X108288Y-59695D01*
X108644Y-59843D01*
X109029Y-59843D01*
X109385Y-59696D01*
X109658Y-59424D01*
X109806Y-59068D01*
X109806Y-58683D01*
X109806Y-61550D01*
X105133Y-61550D01*
X105133Y-58683D01*
X104986Y-58327D01*
X104714Y-58054D01*
X104358Y-57906D01*
X103973Y-57906D01*
X103617Y-58053D01*
X103344Y-58325D01*
X103196Y-58681D01*
X103196Y-59066D01*
X103343Y-59422D01*
X103615Y-59695D01*
X103971Y-59843D01*
X104356Y-59843D01*
X104712Y-59696D01*
X104985Y-59424D01*
X105133Y-59068D01*
X105133Y-58683D01*
X105133Y-61550D01*
X102881Y-61550D01*
X102881Y-58683D01*
X102734Y-58327D01*
X102462Y-58054D01*
X102106Y-57906D01*
X101721Y-57906D01*
X101365Y-58053D01*
X101092Y-58325D01*
X100944Y-58681D01*
X100944Y-59066D01*
X101091Y-59422D01*
X101363Y-59695D01*
X101719Y-59843D01*
X102104Y-59843D01*
X102460Y-59696D01*
X102733Y-59424D01*
X102881Y-59068D01*
X102881Y-58683D01*
X102881Y-61550D01*
X98208Y-61550D01*
X98208Y-58683D01*
X98061Y-58327D01*
X97789Y-58054D01*
X97433Y-57906D01*
X97048Y-57906D01*
X96692Y-58053D01*
X96419Y-58325D01*
X96271Y-58681D01*
X96271Y-59066D01*
X96418Y-59422D01*
X96690Y-59695D01*
X97046Y-59843D01*
X97431Y-59843D01*
X97787Y-59696D01*
X98060Y-59424D01*
X98208Y-59068D01*
X98208Y-58683D01*
X98208Y-61550D01*
X94470Y-61550D01*
X94470Y-59065D01*
X94470Y-58675D01*
X93880Y-58675D01*
X93880Y-59590D01*
X93979Y-59637D01*
X94028Y-59625D01*
X94247Y-59502D01*
X94402Y-59306D01*
X94470Y-59065D01*
X94470Y-61550D01*
X93780Y-61550D01*
X93780Y-59590D01*
X93780Y-58675D01*
X93190Y-58675D01*
X93190Y-59065D01*
X93257Y-59306D01*
X93412Y-59502D01*
X93631Y-59625D01*
X93680Y-59637D01*
X93780Y-59590D01*
X93780Y-61550D01*
X89850Y-61550D01*
X89850Y-58892D01*
X91092Y-57650D01*
X91575Y-57650D01*
X91407Y-57762D01*
X91268Y-57969D01*
X91220Y-58214D01*
X91220Y-59035D01*
X91268Y-59280D01*
X91407Y-59487D01*
X91615Y-59626D01*
X91860Y-59675D01*
X92104Y-59626D01*
X92312Y-59487D01*
X92451Y-59280D01*
X92500Y-59035D01*
X92500Y-58214D01*
X92451Y-57969D01*
X92312Y-57762D01*
X92144Y-57650D01*
X93585Y-57650D01*
X93412Y-57747D01*
X93257Y-57943D01*
X93190Y-58185D01*
X93190Y-58575D01*
X93780Y-58575D01*
X93780Y-58567D01*
X93880Y-58567D01*
X93880Y-58575D01*
X94470Y-58575D01*
X94470Y-58185D01*
X94402Y-57943D01*
X94247Y-57747D01*
X94074Y-57650D01*
X96050Y-57650D01*
X96050Y-53874D01*
X96087Y-53912D01*
X96087Y-53912D01*
X96087Y-53912D01*
X96900Y-54724D01*
X96900Y-55750D01*
X96922Y-55864D01*
X96987Y-55962D01*
X97279Y-56253D01*
X97279Y-56720D01*
X97317Y-56811D01*
X97387Y-56882D01*
X97479Y-56920D01*
X97579Y-56920D01*
X98170Y-56920D01*
X98261Y-56882D01*
X98332Y-56812D01*
X98370Y-56720D01*
X98370Y-56691D01*
X98515Y-56837D01*
X98525Y-56841D01*
X98525Y-57025D01*
X98547Y-57139D01*
X98612Y-57237D01*
X98887Y-57512D01*
X98985Y-57577D01*
X99100Y-57600D01*
X105600Y-57600D01*
X105600Y-57599D01*
X105714Y-57577D01*
X105714Y-57577D01*
X105812Y-57512D01*
X105962Y-57362D01*
X105962Y-57362D01*
X106027Y-57264D01*
X106049Y-57150D01*
X106050Y-57150D01*
X106050Y-56841D01*
X106058Y-56837D01*
X106212Y-56684D01*
X106249Y-56593D01*
X106287Y-56683D01*
X106440Y-56837D01*
X106641Y-56920D01*
X106858Y-56920D01*
X107058Y-56837D01*
X107212Y-56684D01*
X107249Y-56593D01*
X107287Y-56683D01*
X107440Y-56837D01*
X107641Y-56920D01*
X107858Y-56920D01*
X108058Y-56837D01*
X108212Y-56684D01*
X108295Y-56483D01*
X108295Y-56322D01*
X108496Y-56121D01*
X108571Y-56008D01*
X108571Y-56008D01*
X108598Y-55875D01*
X108598Y-55797D01*
X108712Y-55684D01*
X108795Y-55483D01*
X108795Y-55266D01*
X108712Y-55066D01*
X108598Y-54951D01*
X108598Y-52350D01*
X108571Y-52216D01*
X108571Y-52216D01*
X108496Y-52103D01*
X108046Y-51653D01*
X107950Y-51589D01*
X107950Y-51550D01*
X107912Y-51458D01*
X107841Y-51388D01*
X107749Y-51350D01*
X107650Y-51349D01*
X107050Y-51349D01*
X106958Y-51387D01*
X106888Y-51458D01*
X106850Y-51550D01*
X106850Y-51572D01*
X106711Y-51434D01*
X106509Y-51350D01*
X106291Y-51349D01*
X106088Y-51433D01*
X105934Y-51588D01*
X105900Y-51669D01*
X105866Y-51588D01*
X105711Y-51434D01*
X105509Y-51350D01*
X105291Y-51349D01*
X105088Y-51433D01*
X104934Y-51588D01*
X104929Y-51600D01*
X104600Y-51600D01*
X104485Y-51622D01*
X104387Y-51687D01*
X103987Y-52087D01*
X103922Y-52185D01*
X103900Y-52300D01*
X103900Y-56375D01*
X103575Y-56700D01*
X101271Y-56700D01*
X101287Y-56684D01*
X101370Y-56483D01*
X101370Y-56322D01*
X101571Y-56121D01*
X101646Y-56008D01*
X101646Y-56008D01*
X101673Y-55875D01*
X101673Y-55797D01*
X101787Y-55684D01*
X101870Y-55483D01*
X101870Y-55322D01*
X102946Y-54246D01*
X102946Y-54246D01*
X102946Y-54246D01*
X103021Y-54133D01*
X103048Y-54000D01*
X103048Y-54000D01*
X103048Y-54000D01*
X103048Y-53205D01*
X103111Y-53141D01*
X103149Y-53049D01*
X103150Y-52950D01*
X103150Y-52350D01*
X103112Y-52258D01*
X103041Y-52188D01*
X102949Y-52150D01*
X102850Y-52149D01*
X102250Y-52149D01*
X102158Y-52187D01*
X102088Y-52258D01*
X102050Y-52350D01*
X102050Y-52372D01*
X101911Y-52234D01*
X101709Y-52150D01*
X101491Y-52149D01*
X101288Y-52233D01*
X101170Y-52351D01*
X100200Y-52351D01*
X100200Y-52300D01*
X100162Y-52208D01*
X100091Y-52138D01*
X99999Y-52100D01*
X99900Y-52099D01*
X99200Y-52099D01*
X99108Y-52137D01*
X99038Y-52208D01*
X99018Y-52254D01*
X98996Y-52232D01*
X98951Y-52277D01*
X98917Y-52177D01*
X98693Y-52095D01*
X98455Y-52105D01*
X98282Y-52177D01*
X98248Y-52277D01*
X98600Y-52629D01*
X98605Y-52623D01*
X98676Y-52694D01*
X98670Y-52700D01*
X98676Y-52705D01*
X98605Y-52776D01*
X98600Y-52770D01*
X98248Y-53122D01*
X98282Y-53222D01*
X98506Y-53304D01*
X98744Y-53294D01*
X98917Y-53222D01*
X98951Y-53122D01*
X98951Y-53122D01*
X98996Y-53167D01*
X99018Y-53145D01*
X99037Y-53191D01*
X99108Y-53261D01*
X99200Y-53299D01*
X99299Y-53300D01*
X99999Y-53300D01*
X100091Y-53262D01*
X100161Y-53191D01*
X100199Y-53099D01*
X100200Y-53048D01*
X101170Y-53048D01*
X101288Y-53165D01*
X101490Y-53249D01*
X101708Y-53250D01*
X101911Y-53166D01*
X102049Y-53027D01*
X102049Y-53049D01*
X102087Y-53141D01*
X102158Y-53211D01*
X102250Y-53249D01*
X102349Y-53250D01*
X102351Y-53250D01*
X102351Y-53855D01*
X101377Y-54829D01*
X101216Y-54829D01*
X101016Y-54912D01*
X100862Y-55065D01*
X100827Y-55150D01*
X100802Y-55089D01*
X100707Y-55063D01*
X100636Y-55133D01*
X100636Y-54992D01*
X100610Y-54897D01*
X100405Y-54824D01*
X100188Y-54835D01*
X100039Y-54897D01*
X100013Y-54992D01*
X100325Y-55304D01*
X100636Y-54992D01*
X100636Y-55133D01*
X100395Y-55375D01*
X100707Y-55686D01*
X100802Y-55660D01*
X100825Y-55595D01*
X100862Y-55683D01*
X100942Y-55764D01*
X100877Y-55829D01*
X100716Y-55829D01*
X100636Y-55862D01*
X100636Y-55757D01*
X100325Y-55445D01*
X100254Y-55516D01*
X100254Y-55375D01*
X99942Y-55063D01*
X99847Y-55089D01*
X99826Y-55148D01*
X99802Y-55089D01*
X99707Y-55063D01*
X99636Y-55133D01*
X99636Y-54992D01*
X99610Y-54897D01*
X99405Y-54824D01*
X99188Y-54835D01*
X99039Y-54897D01*
X99013Y-54992D01*
X99325Y-55304D01*
X99636Y-54992D01*
X99636Y-55133D01*
X99395Y-55375D01*
X99707Y-55686D01*
X99802Y-55660D01*
X99823Y-55601D01*
X99847Y-55660D01*
X99942Y-55686D01*
X100254Y-55375D01*
X100254Y-55516D01*
X100013Y-55757D01*
X100039Y-55852D01*
X100244Y-55925D01*
X100461Y-55914D01*
X100610Y-55852D01*
X100636Y-55757D01*
X100636Y-55862D01*
X100516Y-55912D01*
X100362Y-56065D01*
X100325Y-56156D01*
X100287Y-56066D01*
X100134Y-55912D01*
X99933Y-55829D01*
X99716Y-55829D01*
X99636Y-55862D01*
X99636Y-55757D01*
X99325Y-55445D01*
X99254Y-55516D01*
X99254Y-55375D01*
X98951Y-55072D01*
X98942Y-55063D01*
X98847Y-55089D01*
X98826Y-55148D01*
X98802Y-55089D01*
X98707Y-55063D01*
X98636Y-55133D01*
X98636Y-54992D01*
X98610Y-54897D01*
X98405Y-54824D01*
X98188Y-54835D01*
X98039Y-54897D01*
X98013Y-54992D01*
X98325Y-55304D01*
X98636Y-54992D01*
X98636Y-55133D01*
X98395Y-55375D01*
X98707Y-55686D01*
X98802Y-55660D01*
X98823Y-55601D01*
X98847Y-55660D01*
X98942Y-55686D01*
X99254Y-55375D01*
X99254Y-55516D01*
X99013Y-55757D01*
X99039Y-55852D01*
X99244Y-55925D01*
X99461Y-55914D01*
X99610Y-55852D01*
X99636Y-55757D01*
X99636Y-55862D01*
X99516Y-55912D01*
X99362Y-56065D01*
X99325Y-56156D01*
X99287Y-56066D01*
X99134Y-55912D01*
X98933Y-55829D01*
X98716Y-55829D01*
X98707Y-55833D01*
X98635Y-55761D01*
X98636Y-55757D01*
X98325Y-55445D01*
X98319Y-55451D01*
X98248Y-55380D01*
X98254Y-55375D01*
X97942Y-55063D01*
X97900Y-55075D01*
X97900Y-54500D01*
X97877Y-54385D01*
X97812Y-54287D01*
X97812Y-54287D01*
X97612Y-54087D01*
X97612Y-54087D01*
X97612Y-54087D01*
X96900Y-53375D01*
X96900Y-50787D01*
X96900Y-50350D01*
X96462Y-50350D01*
X96400Y-50412D01*
X96399Y-50649D01*
X96437Y-50741D01*
X96508Y-50811D01*
X96600Y-50849D01*
X96699Y-50850D01*
X96837Y-50850D01*
X96900Y-50787D01*
X96900Y-53375D01*
X94912Y-51387D01*
X94912Y-51387D01*
X94912Y-51387D01*
X94124Y-50600D01*
X94125Y-50515D01*
X94060Y-50359D01*
X93941Y-50239D01*
X93784Y-50175D01*
X93615Y-50174D01*
X93459Y-50239D01*
X93450Y-50248D01*
X93441Y-50239D01*
X93284Y-50175D01*
X93115Y-50174D01*
X92959Y-50239D01*
X92839Y-50358D01*
X92775Y-50515D01*
X92774Y-50684D01*
X92839Y-50840D01*
X92958Y-50960D01*
X93115Y-51024D01*
X93200Y-51025D01*
X95525Y-53350D01*
X73848Y-53350D01*
X73848Y-50850D01*
X74602Y-50850D01*
X74575Y-50915D01*
X74574Y-51084D01*
X74639Y-51240D01*
X74758Y-51360D01*
X74915Y-51424D01*
X75084Y-51425D01*
X75240Y-51360D01*
X75301Y-51300D01*
X75500Y-51300D01*
X75500Y-51299D01*
X75614Y-51277D01*
X75614Y-51277D01*
X75712Y-51212D01*
X78362Y-48562D01*
X78362Y-48562D01*
X78427Y-48464D01*
X78445Y-48373D01*
X78461Y-48366D01*
X78615Y-48211D01*
X78649Y-48130D01*
X78683Y-48211D01*
X78838Y-48365D01*
X78850Y-48370D01*
X78850Y-49475D01*
X77750Y-50575D01*
X77665Y-50574D01*
X77509Y-50639D01*
X77389Y-50758D01*
X77325Y-50915D01*
X77324Y-51084D01*
X77389Y-51240D01*
X77508Y-51360D01*
X77665Y-51424D01*
X77834Y-51425D01*
X77990Y-51360D01*
X78110Y-51241D01*
X78174Y-51084D01*
X78175Y-50999D01*
X79362Y-49812D01*
X79362Y-49812D01*
X79427Y-49714D01*
X79449Y-49600D01*
X79450Y-49600D01*
X79450Y-48371D01*
X79461Y-48366D01*
X79615Y-48211D01*
X79649Y-48130D01*
X79683Y-48211D01*
X79838Y-48365D01*
X79850Y-48370D01*
X79850Y-50150D01*
X79872Y-50264D01*
X79937Y-50362D01*
X80575Y-50999D01*
X80574Y-51084D01*
X80639Y-51240D01*
X80758Y-51360D01*
X80915Y-51424D01*
X81084Y-51425D01*
X81240Y-51360D01*
X81360Y-51241D01*
X81424Y-51084D01*
X81425Y-50915D01*
X81360Y-50759D01*
X81241Y-50639D01*
X81084Y-50575D01*
X80999Y-50574D01*
X80450Y-50025D01*
X80450Y-48371D01*
X80461Y-48366D01*
X80615Y-48211D01*
X80649Y-48130D01*
X80683Y-48211D01*
X80838Y-48365D01*
X80850Y-48370D01*
X80850Y-48400D01*
X80872Y-48514D01*
X80937Y-48612D01*
X83325Y-50999D01*
X83324Y-51084D01*
X83389Y-51240D01*
X83508Y-51360D01*
X83665Y-51424D01*
X83834Y-51425D01*
X83990Y-51360D01*
X84110Y-51241D01*
X84174Y-51084D01*
X84175Y-50915D01*
X84128Y-50802D01*
X84287Y-50962D01*
X84287Y-50962D01*
X84385Y-51027D01*
X84499Y-51049D01*
X84500Y-51050D01*
X86824Y-51050D01*
X86824Y-51084D01*
X86889Y-51240D01*
X87008Y-51360D01*
X87165Y-51424D01*
X87334Y-51425D01*
X87490Y-51360D01*
X87610Y-51241D01*
X87674Y-51084D01*
X87675Y-50915D01*
X87627Y-50800D01*
X89875Y-50800D01*
X90075Y-50999D01*
X90074Y-51084D01*
X90139Y-51240D01*
X90258Y-51360D01*
X90415Y-51424D01*
X90584Y-51425D01*
X90740Y-51360D01*
X90860Y-51241D01*
X90924Y-51084D01*
X90925Y-50915D01*
X90860Y-50759D01*
X90741Y-50639D01*
X90584Y-50575D01*
X90499Y-50574D01*
X90474Y-50550D01*
X91125Y-50550D01*
X93325Y-52749D01*
X93324Y-52834D01*
X93389Y-52990D01*
X93508Y-53110D01*
X93665Y-53174D01*
X93834Y-53175D01*
X93990Y-53110D01*
X94110Y-52991D01*
X94174Y-52834D01*
X94175Y-52665D01*
X94110Y-52509D01*
X93991Y-52389D01*
X93834Y-52325D01*
X93749Y-52324D01*
X91474Y-50050D01*
X94150Y-50050D01*
X94200Y-50050D01*
X94949Y-50050D01*
X95058Y-50160D01*
X95215Y-50224D01*
X95384Y-50225D01*
X95540Y-50160D01*
X95660Y-50041D01*
X95724Y-49884D01*
X95725Y-49715D01*
X95660Y-49559D01*
X95541Y-49439D01*
X95384Y-49375D01*
X95215Y-49374D01*
X95059Y-49439D01*
X95049Y-49450D01*
X94200Y-49450D01*
X94150Y-49450D01*
X86174Y-49450D01*
X86024Y-49300D01*
X90850Y-49300D01*
X93100Y-49300D01*
X93200Y-49300D01*
X93598Y-49300D01*
X93658Y-49360D01*
X93815Y-49424D01*
X93984Y-49425D01*
X94140Y-49360D01*
X94201Y-49300D01*
X95200Y-49300D01*
X95200Y-49299D01*
X95314Y-49277D01*
X95314Y-49277D01*
X95412Y-49212D01*
X97399Y-47224D01*
X97484Y-47225D01*
X97640Y-47160D01*
X97760Y-47041D01*
X97824Y-46884D01*
X97825Y-46715D01*
X97760Y-46559D01*
X97641Y-46439D01*
X97484Y-46375D01*
X97315Y-46374D01*
X97159Y-46439D01*
X97039Y-46558D01*
X96975Y-46715D01*
X96974Y-46800D01*
X95075Y-48700D01*
X94201Y-48700D01*
X94141Y-48639D01*
X93984Y-48575D01*
X93815Y-48574D01*
X93659Y-48639D01*
X93598Y-48700D01*
X93200Y-48700D01*
X93100Y-48700D01*
X91150Y-48700D01*
X91150Y-47450D01*
X91127Y-47335D01*
X91062Y-47237D01*
X91062Y-47237D01*
X90622Y-46798D01*
X93300Y-46798D01*
X93305Y-46798D01*
X93382Y-46875D01*
X93325Y-47015D01*
X93324Y-47184D01*
X93389Y-47340D01*
X93508Y-47460D01*
X93665Y-47524D01*
X93834Y-47525D01*
X93990Y-47460D01*
X94110Y-47341D01*
X94174Y-47184D01*
X94175Y-47015D01*
X94110Y-46859D01*
X94098Y-46847D01*
X94098Y-46750D01*
X94098Y-46749D01*
X94098Y-46749D01*
X94071Y-46616D01*
X93996Y-46503D01*
X93996Y-46503D01*
X93696Y-46203D01*
X93583Y-46128D01*
X93450Y-46101D01*
X93350Y-46101D01*
X93300Y-46101D01*
X92072Y-46101D01*
X92512Y-45662D01*
X92512Y-45662D01*
X92577Y-45564D01*
X92599Y-45450D01*
X92600Y-45450D01*
X92600Y-44551D01*
X92660Y-44491D01*
X92724Y-44334D01*
X92725Y-44165D01*
X92660Y-44009D01*
X92541Y-43889D01*
X92384Y-43825D01*
X92215Y-43824D01*
X92059Y-43889D01*
X92050Y-43898D01*
X92041Y-43889D01*
X91884Y-43825D01*
X91715Y-43824D01*
X91559Y-43889D01*
X91550Y-43898D01*
X91541Y-43889D01*
X91384Y-43825D01*
X91215Y-43824D01*
X91059Y-43889D01*
X91050Y-43898D01*
X91041Y-43889D01*
X90884Y-43825D01*
X90715Y-43824D01*
X90600Y-43872D01*
X90600Y-43051D01*
X90660Y-42991D01*
X90724Y-42834D01*
X90725Y-42665D01*
X90660Y-42509D01*
X90541Y-42389D01*
X90384Y-42325D01*
X90215Y-42324D01*
X90059Y-42389D01*
X90050Y-42398D01*
X90041Y-42389D01*
X89884Y-42325D01*
X89715Y-42324D01*
X89559Y-42389D01*
X89550Y-42398D01*
X89541Y-42389D01*
X89384Y-42325D01*
X89215Y-42324D01*
X89059Y-42389D01*
X89050Y-42398D01*
X89041Y-42389D01*
X88884Y-42325D01*
X88767Y-42324D01*
X89157Y-41935D01*
X93500Y-41935D01*
X93900Y-41935D01*
X94502Y-41935D01*
X94632Y-42065D01*
X94840Y-42151D01*
X95025Y-42152D01*
X95569Y-42696D01*
X95682Y-42771D01*
X95816Y-42798D01*
X96050Y-42798D01*
X98900Y-42798D01*
X99400Y-42798D01*
X100351Y-42798D01*
X100351Y-43334D01*
X100351Y-43400D01*
X100351Y-48923D01*
X100261Y-48834D01*
X100250Y-48829D01*
X100250Y-47801D01*
X100260Y-47791D01*
X100324Y-47634D01*
X100325Y-47465D01*
X100260Y-47309D01*
X100141Y-47189D01*
X99984Y-47125D01*
X99815Y-47124D01*
X99659Y-47189D01*
X99539Y-47308D01*
X99475Y-47465D01*
X99474Y-47634D01*
X99539Y-47790D01*
X99650Y-47901D01*
X99650Y-48828D01*
X99638Y-48833D01*
X99484Y-48988D01*
X99450Y-49069D01*
X99416Y-48988D01*
X99261Y-48834D01*
X99059Y-48750D01*
X98841Y-48749D01*
X98638Y-48833D01*
X98484Y-48988D01*
X98450Y-49069D01*
X98416Y-48988D01*
X98261Y-48834D01*
X98059Y-48750D01*
X97841Y-48749D01*
X97638Y-48833D01*
X97484Y-48988D01*
X97450Y-49069D01*
X97416Y-48988D01*
X97261Y-48834D01*
X97059Y-48750D01*
X96841Y-48749D01*
X96638Y-48833D01*
X96484Y-48988D01*
X96400Y-49190D01*
X96399Y-49408D01*
X96483Y-49611D01*
X96622Y-49750D01*
X96600Y-49750D01*
X96508Y-49788D01*
X96437Y-49858D01*
X96399Y-49950D01*
X96400Y-50187D01*
X96462Y-50250D01*
X96900Y-50250D01*
X96900Y-50242D01*
X97000Y-50242D01*
X97000Y-50250D01*
X97437Y-50250D01*
X97450Y-50237D01*
X97462Y-50250D01*
X97900Y-50250D01*
X97900Y-50242D01*
X98000Y-50242D01*
X98000Y-50250D01*
X98437Y-50250D01*
X98450Y-50237D01*
X98462Y-50250D01*
X98900Y-50250D01*
X98900Y-50242D01*
X99000Y-50242D01*
X99000Y-50250D01*
X99437Y-50250D01*
X99450Y-50237D01*
X99462Y-50250D01*
X99900Y-50250D01*
X99900Y-50242D01*
X100000Y-50242D01*
X100000Y-50250D01*
X100007Y-50250D01*
X100007Y-50350D01*
X100000Y-50350D01*
X100000Y-50787D01*
X100062Y-50850D01*
X100200Y-50850D01*
X100299Y-50849D01*
X100351Y-50828D01*
X100351Y-50855D01*
X100155Y-51051D01*
X99900Y-51051D01*
X99900Y-50787D01*
X99900Y-50350D01*
X99462Y-50350D01*
X99450Y-50362D01*
X99437Y-50350D01*
X99000Y-50350D01*
X99000Y-50787D01*
X99062Y-50850D01*
X99200Y-50850D01*
X99299Y-50849D01*
X99391Y-50811D01*
X99450Y-50753D01*
X99508Y-50811D01*
X99600Y-50849D01*
X99699Y-50850D01*
X99837Y-50850D01*
X99900Y-50787D01*
X99900Y-51051D01*
X98900Y-51051D01*
X98900Y-50787D01*
X98900Y-50350D01*
X98462Y-50350D01*
X98450Y-50362D01*
X98437Y-50350D01*
X98000Y-50350D01*
X98000Y-50787D01*
X98062Y-50850D01*
X98200Y-50850D01*
X98299Y-50849D01*
X98391Y-50811D01*
X98450Y-50753D01*
X98508Y-50811D01*
X98600Y-50849D01*
X98699Y-50850D01*
X98837Y-50850D01*
X98900Y-50787D01*
X98900Y-51051D01*
X98200Y-51051D01*
X98066Y-51078D01*
X97953Y-51153D01*
X97900Y-51207D01*
X97900Y-50787D01*
X97900Y-50350D01*
X97462Y-50350D01*
X97450Y-50362D01*
X97437Y-50350D01*
X97000Y-50350D01*
X97000Y-50787D01*
X97062Y-50850D01*
X97200Y-50850D01*
X97299Y-50849D01*
X97391Y-50811D01*
X97450Y-50753D01*
X97508Y-50811D01*
X97600Y-50849D01*
X97699Y-50850D01*
X97837Y-50850D01*
X97900Y-50787D01*
X97900Y-51207D01*
X97353Y-51753D01*
X97278Y-51866D01*
X97251Y-52000D01*
X97251Y-52200D01*
X97091Y-52359D01*
X97000Y-52580D01*
X96999Y-52818D01*
X97091Y-53039D01*
X97259Y-53208D01*
X97480Y-53299D01*
X97718Y-53300D01*
X97939Y-53208D01*
X98108Y-53040D01*
X98112Y-53029D01*
X98177Y-53051D01*
X98529Y-52700D01*
X98177Y-52348D01*
X98112Y-52370D01*
X98108Y-52360D01*
X97948Y-52199D01*
X97948Y-52144D01*
X98344Y-51748D01*
X100300Y-51748D01*
X100433Y-51721D01*
X100433Y-51721D01*
X100546Y-51646D01*
X100946Y-51246D01*
X100946Y-51246D01*
X100946Y-51246D01*
X101021Y-51133D01*
X101048Y-51000D01*
X101048Y-51000D01*
X101048Y-51000D01*
X101048Y-49718D01*
X101065Y-49724D01*
X101234Y-49725D01*
X101390Y-49660D01*
X101510Y-49541D01*
X101574Y-49384D01*
X101575Y-49299D01*
X101799Y-49074D01*
X101884Y-49075D01*
X102040Y-49010D01*
X102160Y-48891D01*
X102224Y-48734D01*
X102225Y-48565D01*
X102160Y-48409D01*
X102041Y-48289D01*
X101884Y-48225D01*
X101715Y-48224D01*
X101559Y-48289D01*
X101439Y-48408D01*
X101375Y-48565D01*
X101374Y-48650D01*
X101150Y-48875D01*
X101065Y-48874D01*
X101048Y-48882D01*
X101048Y-43400D01*
X101048Y-43334D01*
X101048Y-42798D01*
X101150Y-42798D01*
X103000Y-42798D01*
X103500Y-42798D01*
X107000Y-42798D01*
X107450Y-42798D01*
X107705Y-42798D01*
X107851Y-42944D01*
X107851Y-42999D01*
X107850Y-42999D01*
X107758Y-43037D01*
X107688Y-43108D01*
X107650Y-43200D01*
X107649Y-43299D01*
X107649Y-43899D01*
X107687Y-43991D01*
X107758Y-44061D01*
X107850Y-44099D01*
X107949Y-44100D01*
X108549Y-44100D01*
X108641Y-44062D01*
X108711Y-43991D01*
X108749Y-43899D01*
X108750Y-43846D01*
X108814Y-43865D01*
X109129Y-43550D01*
X108814Y-43234D01*
X108750Y-43253D01*
X108750Y-43200D01*
X108712Y-43108D01*
X108641Y-43038D01*
X108549Y-43000D01*
X108548Y-43000D01*
X108548Y-42800D01*
X108548Y-42799D01*
X108548Y-42799D01*
X108521Y-42666D01*
X108446Y-42553D01*
X108446Y-42553D01*
X108096Y-42203D01*
X107983Y-42128D01*
X107850Y-42101D01*
X107450Y-42101D01*
X107348Y-42101D01*
X107348Y-41990D01*
X107431Y-41907D01*
X107517Y-41699D01*
X107518Y-41475D01*
X107432Y-41267D01*
X107273Y-41108D01*
X107065Y-41022D01*
X106841Y-41021D01*
X106633Y-41107D01*
X106474Y-41266D01*
X106388Y-41474D01*
X106387Y-41698D01*
X106473Y-41906D01*
X106632Y-42065D01*
X106651Y-42073D01*
X106651Y-42101D01*
X105037Y-42101D01*
X105122Y-42066D01*
X105281Y-41907D01*
X105367Y-41699D01*
X105368Y-41475D01*
X105282Y-41267D01*
X105123Y-41108D01*
X104915Y-41022D01*
X104691Y-41021D01*
X104483Y-41107D01*
X104324Y-41266D01*
X104238Y-41474D01*
X104237Y-41698D01*
X104323Y-41906D01*
X104482Y-42065D01*
X104568Y-42101D01*
X103500Y-42101D01*
X103348Y-42101D01*
X103348Y-41990D01*
X103431Y-41907D01*
X103517Y-41699D01*
X103518Y-41475D01*
X103432Y-41267D01*
X103273Y-41108D01*
X103065Y-41022D01*
X102841Y-41021D01*
X102633Y-41107D01*
X102474Y-41266D01*
X102388Y-41474D01*
X102387Y-41698D01*
X102473Y-41906D01*
X102632Y-42065D01*
X102651Y-42073D01*
X102651Y-42101D01*
X101150Y-42101D01*
X101037Y-42101D01*
X101122Y-42066D01*
X101281Y-41907D01*
X101367Y-41699D01*
X101368Y-41475D01*
X101282Y-41267D01*
X101123Y-41108D01*
X100915Y-41022D01*
X100691Y-41021D01*
X100483Y-41107D01*
X100324Y-41266D01*
X100238Y-41474D01*
X100237Y-41698D01*
X100323Y-41906D01*
X100482Y-42065D01*
X100568Y-42101D01*
X99400Y-42101D01*
X99248Y-42101D01*
X99248Y-42076D01*
X99272Y-42066D01*
X99431Y-41907D01*
X99517Y-41699D01*
X99518Y-41475D01*
X99432Y-41267D01*
X99273Y-41108D01*
X99065Y-41022D01*
X98841Y-41021D01*
X98633Y-41107D01*
X98474Y-41266D01*
X98388Y-41474D01*
X98387Y-41698D01*
X98473Y-41906D01*
X98551Y-41984D01*
X98551Y-42101D01*
X97037Y-42101D01*
X97122Y-42066D01*
X97281Y-41907D01*
X97367Y-41699D01*
X97368Y-41475D01*
X97282Y-41267D01*
X97123Y-41108D01*
X96915Y-41022D01*
X96691Y-41021D01*
X96483Y-41107D01*
X96324Y-41266D01*
X96238Y-41474D01*
X96237Y-41698D01*
X96323Y-41906D01*
X96482Y-42065D01*
X96568Y-42101D01*
X96050Y-42101D01*
X95960Y-42101D01*
X95517Y-41659D01*
X95518Y-41475D01*
X95432Y-41267D01*
X95273Y-41108D01*
X95065Y-41022D01*
X94841Y-41021D01*
X94633Y-41107D01*
X94502Y-41238D01*
X93900Y-41238D01*
X93848Y-41238D01*
X93848Y-40252D01*
X93860Y-40241D01*
X93924Y-40084D01*
X93925Y-39915D01*
X93860Y-39759D01*
X93741Y-39639D01*
X93584Y-39575D01*
X93415Y-39574D01*
X93259Y-39639D01*
X93139Y-39758D01*
X93075Y-39915D01*
X93074Y-40084D01*
X93139Y-40240D01*
X93151Y-40252D01*
X93151Y-41238D01*
X89013Y-41238D01*
X88879Y-41265D01*
X88766Y-41340D01*
X88005Y-42101D01*
X87537Y-42101D01*
X87622Y-42066D01*
X87781Y-41907D01*
X87867Y-41699D01*
X87868Y-41475D01*
X87782Y-41267D01*
X87623Y-41108D01*
X87415Y-41022D01*
X87191Y-41021D01*
X86983Y-41107D01*
X86824Y-41266D01*
X86738Y-41474D01*
X86737Y-41698D01*
X86823Y-41906D01*
X86982Y-42065D01*
X87068Y-42101D01*
X85748Y-42101D01*
X85748Y-42076D01*
X85772Y-42066D01*
X85931Y-41907D01*
X86017Y-41699D01*
X86018Y-41475D01*
X85932Y-41267D01*
X85773Y-41108D01*
X85565Y-41022D01*
X85341Y-41021D01*
X85133Y-41107D01*
X84974Y-41266D01*
X84888Y-41474D01*
X84887Y-41698D01*
X84973Y-41906D01*
X85051Y-41984D01*
X85051Y-42101D01*
X83537Y-42101D01*
X83622Y-42066D01*
X83781Y-41907D01*
X83867Y-41699D01*
X83868Y-41475D01*
X83782Y-41267D01*
X83623Y-41108D01*
X83415Y-41022D01*
X83191Y-41021D01*
X82983Y-41107D01*
X82824Y-41266D01*
X82738Y-41474D01*
X82737Y-41698D01*
X82823Y-41906D01*
X82982Y-42065D01*
X83068Y-42101D01*
X81748Y-42101D01*
X81748Y-42076D01*
X81772Y-42066D01*
X81931Y-41907D01*
X82017Y-41699D01*
X82018Y-41475D01*
X81932Y-41267D01*
X81773Y-41108D01*
X81565Y-41022D01*
X81341Y-41021D01*
X81133Y-41107D01*
X80974Y-41266D01*
X80888Y-41474D01*
X80887Y-41698D01*
X80973Y-41906D01*
X81051Y-41984D01*
X81051Y-42101D01*
X79537Y-42101D01*
X79622Y-42066D01*
X79781Y-41907D01*
X79867Y-41699D01*
X79868Y-41475D01*
X79782Y-41267D01*
X79623Y-41108D01*
X79415Y-41022D01*
X79191Y-41021D01*
X78983Y-41107D01*
X78824Y-41266D01*
X78738Y-41474D01*
X78737Y-41698D01*
X78823Y-41906D01*
X78982Y-42065D01*
X79068Y-42101D01*
X77848Y-42101D01*
X77848Y-41990D01*
X77931Y-41907D01*
X78017Y-41699D01*
X78018Y-41475D01*
X77932Y-41267D01*
X77773Y-41108D01*
X77565Y-41022D01*
X77341Y-41021D01*
X77133Y-41107D01*
X76974Y-41266D01*
X76888Y-41474D01*
X76887Y-41698D01*
X76973Y-41906D01*
X77132Y-42065D01*
X77151Y-42073D01*
X77151Y-42101D01*
X76500Y-42101D01*
X76453Y-42101D01*
X75537Y-42101D01*
X75622Y-42066D01*
X75781Y-41907D01*
X75867Y-41699D01*
X75868Y-41475D01*
X75782Y-41267D01*
X75623Y-41108D01*
X75415Y-41022D01*
X75191Y-41021D01*
X74983Y-41107D01*
X74824Y-41266D01*
X74738Y-41474D01*
X74737Y-41698D01*
X74823Y-41906D01*
X74982Y-42065D01*
X75068Y-42101D01*
X73994Y-42101D01*
X73865Y-41973D01*
X73931Y-41907D01*
X74017Y-41699D01*
X74018Y-41475D01*
X73932Y-41267D01*
X73773Y-41108D01*
X73565Y-41022D01*
X73341Y-41021D01*
X73133Y-41107D01*
X72974Y-41266D01*
X72888Y-41474D01*
X72887Y-41698D01*
X72973Y-41906D01*
X73104Y-42037D01*
X73104Y-42053D01*
X73131Y-42186D01*
X73206Y-42299D01*
X73603Y-42696D01*
X73603Y-42696D01*
X73716Y-42771D01*
X73850Y-42798D01*
X76453Y-42798D01*
X76500Y-42798D01*
X77500Y-42798D01*
X81400Y-42798D01*
X85400Y-42798D01*
X88150Y-42798D01*
X88283Y-42771D01*
X88283Y-42771D01*
X88375Y-42710D01*
X88374Y-42834D01*
X88439Y-42990D01*
X88500Y-43051D01*
X88500Y-43925D01*
X88325Y-44100D01*
X87650Y-44100D01*
X77850Y-44100D01*
X77735Y-44122D01*
X77637Y-44187D01*
X76937Y-44887D01*
X76872Y-44985D01*
X76850Y-45100D01*
X76850Y-46428D01*
X76838Y-46433D01*
X76684Y-46588D01*
X76600Y-46790D01*
X76599Y-47008D01*
X76683Y-47211D01*
X76822Y-47349D01*
X76800Y-47349D01*
X76708Y-47387D01*
X76638Y-47458D01*
X76600Y-47550D01*
X76599Y-47649D01*
X76599Y-48249D01*
X76637Y-48341D01*
X76708Y-48411D01*
X76800Y-48449D01*
X76899Y-48450D01*
X77499Y-48450D01*
X77591Y-48412D01*
X77661Y-48341D01*
X77699Y-48249D01*
X77699Y-48227D01*
X77773Y-48301D01*
X75375Y-50700D01*
X75301Y-50700D01*
X75241Y-50639D01*
X75084Y-50575D01*
X74915Y-50574D01*
X74850Y-50602D01*
X74850Y-45150D01*
X71850Y-45150D01*
X71850Y-39050D01*
X110550Y-39050D01*
X110550Y-61550D01*
M02*
