G04 (created by PCBNEW (2012-nov-02)-testing) date mer. 17 avril 2013 15:57:01 CEST*
%MOIN*%
G04 Gerber Fmt 3.4, Leading zero omitted, Abs format*
%FSLAX34Y34*%
G01*
G70*
G90*
G04 APERTURE LIST*
%ADD10C,2.3622e-06*%
%ADD11C,0.015*%
%ADD12R,0.08X0.08*%
%ADD13C,0.08*%
%ADD14O,0.098X0.176*%
%ADD15C,0.083*%
%ADD16C,0.1637*%
%ADD17R,0.0791X0.0791*%
%ADD18C,0.0791*%
%ADD19C,0.09*%
%ADD20R,0.09X0.09*%
G04 APERTURE END LIST*
G54D10*
G54D11*
X71500Y-62000D02*
X110900Y-62000D01*
X71500Y-28000D02*
X110900Y-28000D01*
X110900Y-28000D02*
X110800Y-28000D01*
X110900Y-62000D02*
X110900Y-28000D01*
X71500Y-62000D02*
X71500Y-28000D01*
G54D12*
X77150Y-47900D03*
G54D13*
X77150Y-46900D03*
X78150Y-47900D03*
X78150Y-46900D03*
X79150Y-47900D03*
X79150Y-46900D03*
X80150Y-47900D03*
X80150Y-46900D03*
X81150Y-47900D03*
X81150Y-46900D03*
X82150Y-47900D03*
X82150Y-46900D03*
X83150Y-47900D03*
X83150Y-46900D03*
X84150Y-47900D03*
X84150Y-46900D03*
X85150Y-47900D03*
X85150Y-46900D03*
X86150Y-47900D03*
X86150Y-46900D03*
G54D12*
X102600Y-52700D03*
G54D13*
X101600Y-52700D03*
G54D14*
X91860Y-58625D03*
X93830Y-58625D03*
X82000Y-59000D03*
X83515Y-59000D03*
X85031Y-59000D03*
X86547Y-59000D03*
X88062Y-59000D03*
X73500Y-59000D03*
X75015Y-59000D03*
X76531Y-59000D03*
X78047Y-59000D03*
X79562Y-59000D03*
G54D15*
X98953Y-41587D03*
X100803Y-41587D03*
X100803Y-35681D03*
X98953Y-34303D03*
X85453Y-41587D03*
X87303Y-41587D03*
X87303Y-35681D03*
X85453Y-34303D03*
X102953Y-41587D03*
X104803Y-41587D03*
X104803Y-35681D03*
X102953Y-34303D03*
X81453Y-41587D03*
X83303Y-41587D03*
X83303Y-35681D03*
X81453Y-34303D03*
X106953Y-41587D03*
X108803Y-41587D03*
X108803Y-35681D03*
X106953Y-34303D03*
X77453Y-41587D03*
X79303Y-41587D03*
X79303Y-35681D03*
X77453Y-34303D03*
X73453Y-41587D03*
X75303Y-41587D03*
X75303Y-35681D03*
X73453Y-34303D03*
X94953Y-41587D03*
X96803Y-41587D03*
X96803Y-35681D03*
X94953Y-34303D03*
G54D12*
X107400Y-51900D03*
G54D13*
X107400Y-52900D03*
X106400Y-51900D03*
X106400Y-52900D03*
X105400Y-51900D03*
X105400Y-52900D03*
G54D14*
X89390Y-31000D03*
X87420Y-31000D03*
X84590Y-31000D03*
X82620Y-31000D03*
X79790Y-31000D03*
X77820Y-31000D03*
X94990Y-31000D03*
X93020Y-31000D03*
X74990Y-31000D03*
X73020Y-31000D03*
X99790Y-31000D03*
X97820Y-31000D03*
X109390Y-31000D03*
X107420Y-31000D03*
X104590Y-31000D03*
X102620Y-31000D03*
G54D12*
X99950Y-50300D03*
G54D13*
X99950Y-49300D03*
G54D12*
X98950Y-50300D03*
G54D13*
X98950Y-49300D03*
G54D12*
X96950Y-50300D03*
G54D13*
X96950Y-49300D03*
G54D12*
X108200Y-43550D03*
G54D13*
X109200Y-43550D03*
G54D12*
X97950Y-50300D03*
G54D13*
X97950Y-49300D03*
G54D16*
X101913Y-58875D03*
X97240Y-58875D03*
G54D17*
X97825Y-56375D03*
G54D18*
X98325Y-55375D03*
X98825Y-56375D03*
X99325Y-55375D03*
X99825Y-56375D03*
X100325Y-55375D03*
X100825Y-56375D03*
X101325Y-55375D03*
G54D16*
X108838Y-58875D03*
X104165Y-58875D03*
G54D17*
X104750Y-56375D03*
G54D18*
X105250Y-55375D03*
X105750Y-56375D03*
X106250Y-55375D03*
X106750Y-56375D03*
X107250Y-55375D03*
X107750Y-56375D03*
X108250Y-55375D03*
G54D12*
X89900Y-46950D03*
G54D13*
X89900Y-47950D03*
X88900Y-46950D03*
X88900Y-47950D03*
X87900Y-46950D03*
X87900Y-47950D03*
G54D19*
X97600Y-52700D03*
X98600Y-52700D03*
G54D20*
X99600Y-52700D03*
M02*
