G04 (created by PCBNEW (2013-mar-13)-testing) date mer. 01 mai 2013 21:42:49 CEST*
%MOIN*%
G04 Gerber Fmt 3.4, Leading zero omitted, Abs format*
%FSLAX34Y34*%
G01*
G70*
G90*
G04 APERTURE LIST*
%ADD10C,2.3622e-06*%
%ADD11C,0.015*%
%ADD12C,0.01*%
G04 APERTURE END LIST*
G54D10*
G54D11*
X71500Y-62000D02*
X110900Y-62000D01*
X71500Y-28000D02*
X110900Y-28000D01*
X110900Y-28000D02*
X110800Y-28000D01*
X110900Y-62000D02*
X110900Y-28000D01*
X71500Y-62000D02*
X71500Y-28000D01*
G54D12*
X89000Y-36200D02*
X91400Y-36200D01*
X91400Y-36200D02*
X91800Y-36000D01*
X91800Y-36000D02*
X92800Y-36000D01*
X92800Y-36000D02*
X93200Y-36200D01*
X89000Y-36400D02*
X91400Y-36400D01*
X91400Y-36400D02*
X91800Y-36200D01*
X91800Y-36200D02*
X92800Y-36200D01*
X92800Y-36200D02*
X93200Y-36400D01*
X92800Y-36400D02*
X93200Y-36600D01*
X91800Y-36400D02*
X92800Y-36400D01*
X91400Y-36600D02*
X91800Y-36400D01*
X89000Y-36600D02*
X91400Y-36600D01*
X89000Y-36600D02*
X91400Y-36600D01*
X91400Y-36600D02*
X91800Y-36400D01*
X91800Y-36400D02*
X92800Y-36400D01*
X92800Y-36400D02*
X93200Y-36600D01*
X92800Y-36400D02*
X93200Y-36600D01*
X91800Y-36400D02*
X92800Y-36400D01*
X91400Y-36600D02*
X91800Y-36400D01*
X89000Y-36600D02*
X91400Y-36600D01*
X89000Y-36600D02*
X91400Y-36600D01*
X91400Y-36600D02*
X91800Y-36400D01*
X91800Y-36400D02*
X92800Y-36400D01*
X92800Y-36400D02*
X93200Y-36600D01*
X92800Y-36400D02*
X93200Y-36600D01*
X91800Y-36400D02*
X92800Y-36400D01*
X91400Y-36600D02*
X91800Y-36400D01*
X89000Y-36600D02*
X91400Y-36600D01*
X89000Y-36600D02*
X91400Y-36600D01*
X91400Y-36600D02*
X91800Y-36400D01*
X91800Y-36400D02*
X92800Y-36400D01*
X92800Y-36400D02*
X93200Y-36600D01*
X92800Y-36400D02*
X93200Y-36600D01*
X91800Y-36400D02*
X92800Y-36400D01*
X91400Y-36600D02*
X91800Y-36400D01*
X89000Y-36600D02*
X91400Y-36600D01*
X89000Y-36600D02*
X91400Y-36600D01*
X91400Y-36600D02*
X91800Y-36400D01*
X91800Y-36400D02*
X92800Y-36400D01*
X92800Y-36400D02*
X93200Y-36600D01*
X93075Y-36900D02*
X93175Y-36975D01*
X92850Y-37000D02*
X92950Y-36900D01*
X92025Y-36900D02*
X92075Y-36900D01*
X91800Y-36900D02*
X92050Y-36900D01*
X91800Y-37500D02*
X92075Y-37500D01*
X91950Y-36925D02*
X91950Y-37450D01*
X92825Y-37100D02*
X92850Y-37000D01*
X92950Y-36900D02*
X93075Y-36900D01*
X93225Y-37125D02*
X93200Y-37000D01*
X92825Y-37325D02*
X92850Y-37425D01*
X92850Y-37425D02*
X92925Y-37500D01*
X92925Y-37500D02*
X92975Y-37525D01*
X92975Y-37525D02*
X93075Y-37525D01*
X93075Y-37525D02*
X93125Y-37500D01*
X93125Y-37500D02*
X93175Y-37475D01*
X93175Y-37475D02*
X93200Y-37425D01*
X93200Y-37425D02*
X93225Y-37350D01*
X93225Y-37350D02*
X93225Y-37300D01*
X93225Y-37300D02*
X93225Y-37125D01*
X92825Y-37300D02*
X92825Y-37100D01*
X92225Y-36900D02*
X92225Y-37525D01*
X92225Y-37500D02*
X92575Y-36900D01*
X92575Y-36900D02*
X92575Y-37525D01*
X91325Y-37500D02*
X91325Y-37025D01*
X91325Y-37025D02*
X91350Y-36975D01*
X91350Y-36975D02*
X91375Y-36950D01*
X91375Y-36950D02*
X91400Y-36925D01*
X91400Y-36925D02*
X91450Y-36900D01*
X91450Y-36900D02*
X91500Y-36900D01*
X91500Y-36900D02*
X91550Y-36900D01*
X91550Y-36900D02*
X91600Y-36925D01*
X91600Y-36925D02*
X91625Y-36950D01*
X91625Y-36950D02*
X91650Y-36975D01*
X91650Y-36975D02*
X91650Y-37025D01*
X91650Y-37025D02*
X91650Y-37500D01*
X90725Y-37500D02*
X90850Y-37500D01*
X90850Y-37500D02*
X90950Y-37475D01*
X90950Y-37475D02*
X91000Y-37425D01*
X91000Y-37425D02*
X91025Y-37350D01*
X91025Y-37350D02*
X91050Y-37250D01*
X91050Y-37250D02*
X91050Y-37175D01*
X91050Y-37175D02*
X91050Y-37125D01*
X91050Y-37125D02*
X91025Y-37050D01*
X91025Y-37050D02*
X91000Y-37000D01*
X91000Y-37000D02*
X90950Y-36950D01*
X90950Y-36950D02*
X90875Y-36900D01*
X90875Y-36900D02*
X90825Y-36900D01*
X90825Y-36900D02*
X90700Y-36900D01*
X90700Y-36900D02*
X90700Y-37500D01*
X90225Y-37500D02*
X90225Y-36900D01*
X90225Y-36900D02*
X90500Y-36900D01*
X89625Y-37500D02*
X89650Y-37500D01*
X89650Y-37500D02*
X89875Y-37500D01*
X89875Y-37500D02*
X89925Y-37475D01*
X89925Y-37475D02*
X89950Y-37450D01*
X89950Y-37450D02*
X89975Y-37400D01*
X89975Y-37400D02*
X89975Y-37350D01*
X89975Y-37350D02*
X89975Y-37300D01*
X89975Y-37300D02*
X89950Y-37250D01*
X89950Y-37250D02*
X89900Y-37225D01*
X89900Y-37225D02*
X89850Y-37200D01*
X89850Y-37200D02*
X89625Y-37200D01*
X89625Y-36925D02*
X89625Y-37500D01*
X89100Y-37300D02*
X89400Y-36900D01*
X89075Y-36900D02*
X89375Y-37300D01*
M02*
